<?xml version="1.0" standalone="no"?>
<!DOCTYPE svg PUBLIC "-//W3C//DTD SVG 1.1//EN" "http://www.w3.org/Graphics/SVG/1.1/DTD/svg11.dtd" >
<svg xmlns="http://www.w3.org/2000/svg">
<metadata></metadata>
<defs>
<font id="web_toolsregular" horiz-adv-x="20" >
<font-face units-per-em="2048" ascent="1638" descent="-410" />
<missing-glyph horiz-adv-x="860" />
<glyph horiz-adv-x="0" />
<glyph unicode="&#xd;" horiz-adv-x="681" />
<glyph unicode=" "  horiz-adv-x="860" />
<glyph unicode="&#x09;" horiz-adv-x="860" />
<glyph unicode="&#xa0;" horiz-adv-x="860" />
<glyph unicode="!" />
<glyph unicode="#" />
<glyph unicode="$" />
<glyph unicode="%" />
<glyph unicode="&#x26;" />
<glyph unicode="'" />
<glyph unicode="(" />
<glyph unicode=")" />
<glyph unicode="*" />
<glyph unicode="+" />
<glyph unicode="," />
<glyph unicode="-" />
<glyph unicode="." />
<glyph unicode="/" />
<glyph unicode="0" />
<glyph unicode="1" />
<glyph unicode="2" />
<glyph unicode="3" />
<glyph unicode="4" />
<glyph unicode="5" />
<glyph unicode="6" />
<glyph unicode="7" />
<glyph unicode="8" />
<glyph unicode="9" />
<glyph unicode=":" />
<glyph unicode=";" />
<glyph unicode="&#x3c;" />
<glyph unicode="=" />
<glyph unicode="&#x3e;" />
<glyph unicode="?" />
<glyph unicode="@" />
<glyph unicode="A" horiz-adv-x="1564" d="M82 -16q0 37 74 82q55 31 106 101.5t51 115.5q0 20 -77 100q-139 137 -152 301v29q0 78 29 145q33 78 118 164q76 76 151.5 118.5t184.5 71.5q98 27 205 27q53 0 111 -6q166 -20 299 -92q84 -43 163.5 -130t108.5 -165q29 -72 29 -141q0 -57 -21 -113q-43 -123 -140 -217 t-235.5 -150.5t-275.5 -56.5q-51 0 -70.5 -8t-52.5 -47q-63 -76 -209.5 -127.5t-294.5 -51.5q-92 0 -100 41q-2 4 -2 9z" />
<glyph unicode="B" horiz-adv-x="1550" d="M82 -63q0 14 2 34q8 63 39 135q29 72 104.5 178.5t118.5 137.5q55 41 55 51t-36 47q-66 72 -80 170q-6 29 -6 60q0 63 24 122q33 84 119 143.5t203 59.5q49 0 66 8t48 45q68 78 158 103q41 10 80 10q45 0 86 -14q78 -27 137.5 -95.5t75.5 -162.5q4 -20 4 -41 q0 -94 -74 -178l-51 -58l96 -90q156 -150 203 -344q14 -63 14 -84q0 -20 -14 -43q-16 -23 -40.5 -28t-139.5 -5q-158 0 -158 -16t12 -98q8 -45 9 -70q0 -18 -4 -25q-20 -33 -181 -36h-839l-19 28q-12 18 -12 56zM199 0v-6q4 -25 59 -25h53l21 82q14 49 23.5 65.5t25.5 16.5 q20 0 25 -20q2 -6 2 -17q0 -27 -9 -80l-4 -47h426l-6 54q-6 59 -6 83q0 8 2 13q2 14 23 14q16 0 26 -16.5t25 -65.5l20 -82h62q43 0 51 6q6 2 6 15q0 4 -2 12q-14 98 -96 214t-170 161q-55 27 -127 33h-29q-55 0 -100 -17q-41 -16 -131 -91t-90 -95q0 -10 -43 -101 q-37 -80 -37 -106zM373 745q0 -27 10 -55q14 -53 57 -98q76 -76 164 -76q2 0 4 2q90 0 168 76q63 63 64 149q0 18 -2 39q-17 109 -117 160q-55 29 -105 29h-10q-55 -4 -103 -25.5t-79 -64.5t-43 -90q-8 -23 -8 -46zM801 1032q0 -25 28 -43q29 -18 67 -84.5t48 -116.5 q10 -43 23 -51q8 -4 20 -4q18 0 47 10q45 18 84 56q35 35 44 54t9 67q0 114 -96 184q-47 35 -98 35q-63 0 -137 -52q-35 -25 -37 -51q-2 -2 -2 -4zM815 492q0 -18 74 -86q88 -78 96 -95q37 -70 57 -86q18 -14 52 -14h8l49 4l-4 78q-2 16 -2 31q0 65 23 65h1q31 -2 50 -102 l14 -72h61q55 0 58 23v2q0 22 -43 116q-53 113 -142.5 189t-183.5 76q-39 0 -55.5 -9.5t-44.5 -52.5q-43 -61 -58 -61q-10 0 -10 -6z" />
<glyph unicode="C" horiz-adv-x="1601" d="M82 942q0 16 12 29q25 26 791 307q137 51 192 53h4q49 0 64 -43q41 -137 168 -482t184 -519q23 -72 23 -117q0 -20 -4 -35q-18 -43 -103 -57q-61 -8 -186 -58q-620 -235 -687 -235h-1h-4q-35 4 -60 53q-20 45 -20 68q0 6 2 10q4 25 51 53q33 23 43 37q8 10 8 29v6 q-4 27 -16.5 32t-67.5 7q-66 0 -86 13t-20 59q0 31 43 47q37 12 53 45q6 16 6 30q0 16 -8 33q-8 16 -21 21q-6 2 -14 2q-10 0 -22 -2q-20 -2 -40 -8.5t-26 -8.5h-16q-10 2 -16.5 11.5t-16.5 29.5q-14 31 -15 47q0 6 3 11q8 12 75 51q27 14 35 26q4 8 4 23v10q-8 57 -55 58 q-20 0 -47 -11q-33 -12 -45 -12h-2q-12 2 -29 25q-27 31 -27 59q0 2 2 6q2 29 37 37q57 14 80 55q6 12 6 25q0 23 -24 37q-16 8 -51 8q-20 0 -45 -2l-70 -8l-25 77q-16 51 -16 68zM575 758q0 -35 25 -74t57 -55q41 -20 41 -37q0 -10 -14 -19q-16 -10 -43 -106 q-25 -80 -25 -111q0 -8 2 -12q41 -170 64 -192q8 -8 35 -9q35 0 98 15q115 23 193 61q96 47 118 68q27 25 27 61q0 41 -31 101q-59 111 -172 176l-73 41l10 73q4 27 4 43t-4 27q-6 16 -41 51q-29 31 -49.5 40t-51.5 9q-70 0 -120 -45t-50 -106z" />
<glyph unicode="D" horiz-adv-x="1021" d="M82 592q0 20 47 41.5t104.5 39t104.5 54.5t47 86q0 57 35 164q4 14 16 14t35 -18q39 -39 91 -101.5t81 -72.5q20 -8 70 -8q14 0 32 2q74 2 125 6h17q37 0 53 -13v-4q0 -14 -25 -59q-33 -53 -68.5 -115.5t-35.5 -89.5q0 -41 43 -147q31 -80 31 -109q0 -10 -4 -14 q-6 -6 -23 -6q-35 0 -117 20q-98 27 -137 27q-10 0 -16 -2q-18 -6 -70.5 -46t-97.5 -75t-55 -35q-14 4 -25 139q-2 47 -4 66.5t-10.5 46.5t-13.5 36t-26.5 29.5t-40 32t-61.5 37.5q-102 64 -102 74z" />
<glyph unicode="E" horiz-adv-x="1533" d="M82 596q0 25 10 45q18 47 47 61q31 16 164 56.5t158 40.5q41 1 547 159q113 37 159 37q45 0 82 -33.5t118 -292.5t85 -352v-12q0 -63 -20 -86q-23 -27 -117 -51l-170 -49q-51 -14 -136 -33.5t-194 -54.5q-371 -121 -463 -121q-8 0 -14 2q-43 8 -66 47q-31 53 -131 397 q-49 170 -55 213q-4 12 -4 27zM170 575q2 -18 13.5 -61t30.5 -107.5t48 -162.5q76 -242 103 -258q4 -2 8 -2q16 0 47 49l108 176q80 123 80 143q0 18 -213 130t-223 112q-2 -2 -2 -10v-9zM279 655q0 -14 237 -137q160 -82 205 -98q29 -12 49 -12q12 0 21 4q23 8 67.5 77.5 t104 174t88.5 145.5q39 58 39 74q0 12 -13 12q-14 -2 -139 -41q-131 -41 -193 -51q-88 -18 -277 -77.5t-189 -70.5zM512 33q0 -14 12 -23h4q14 0 64 15q61 16 138 38.5t106 26.5q55 8 210.5 55.5t170.5 61.5q8 8 8 16q0 6 -4 13q-9 14 -29 14q-14 0 -143 61.5t-142 61.5 q-14 0 -32.5 -15.5t-49 -30t-71.5 -14.5l-60 2l-71 -112q-70 -115 -91 -131q-18 -16 -20 -35v-4zM958 457q10 -16 207 -111q182 -90 205 -90h2q16 6 19 41v8q0 31 -15 57q-10 18 -71.5 220.5t-73.5 255.5q-8 32 -22 32h-1q-6 0 -14 -6q-14 -14 -39 -53q-63 -96 -131 -221 q-66 -119 -66 -131v-2z" />
<glyph unicode="F" horiz-adv-x="1335" d="M82 625v34q0 74 14 138q16 76 47 131q51 98 154.5 179t218.5 114q47 14 123 14q25 0 53 -2q164 -6 298 -100.5t206 -251.5q43 -96 53 -172q4 -25 4 -54q0 -53 -14 -116q-27 -133 -105.5 -241t-191.5 -167q-53 -27 -93 -34t-175 -9q-72 -2 -117 -2t-63 2q-37 4 -95 33 q-111 55 -183.5 140t-101 176t-32.5 188zM215 600q0 -25 96.5 -177.5t114.5 -156.5h2q23 0 201 109q184 111 243 162q33 27 39 38v11q0 10 -4 22q-12 27 -12 41q0 8 4 13q12 10 92 16q103 6 119 22q2 2 2 7q0 18 -39 84q-47 80 -89 140t-52 75l-27 32l-20 -32 q-12 -18 -23.5 -41t-16.5 -35t-16 -33q-12 -35 -18 -45t-18 -10h-5q-14 2 -38 30l-37 43l-66 -38q-8 -6 -62.5 -36t-111.5 -63t-118.5 -68.5t-100.5 -66.5t-39 -43z" />
<glyph unicode="G" horiz-adv-x="1013" d="M82 94q0 16 119 139q121 127 139 127t80 -59l59 -57l45 51q61 70 144 258q67 158 67 211q0 10 -2 16q-8 18 -100 23l-94 4l-4 192q-2 63 -3 109q1 88 7 102q4 12 14 13q4 0 8 -2q20 -6 156 -80q94 -49 121.5 -71.5t50.5 -68.5q25 -51 37 -133q6 -43 6 -90q0 -49 -6 -104 q-12 -113 -51 -224.5t-131.5 -224t-227.5 -190.5q-127 -74 -154 -74t-131 49q-100 45 -122.5 58.5t-26.5 25.5z" />
<glyph unicode="H" horiz-adv-x="1441" d="M82 547q0 111 15.5 171t62.5 136q29 45 62.5 86t81.5 86t103.5 76t126 55.5t148.5 26.5h20q70 0 152 -13q109 -20 227.5 -95t155.5 -146q20 -41 49 -88q53 -88 70 -224q4 -45 4 -86q0 -82 -21 -149q-63 -209 -182 -307q-160 -131 -348 -158q-47 -6 -92 -6q-137 0 -264 61 q-195 98 -283 233.5t-88 340.5zM467 551q0 -41 30.5 -111.5t59.5 -95.5q55 -45 129 -49q10 -2 21 -2q59 0 112 26q59 29 101.5 90.5t42.5 135.5q0 82 -40 144t-108 91q-41 18 -98 19h-17q-68 -4 -112 -27q-45 -25 -83 -94.5t-38 -126.5z" />
<glyph unicode="I" horiz-adv-x="655" d="M82 399v76q0 197 10 207q6 6 17 6q6 0 12 -2q18 -8 84 -47l223 -135q143 -84 145 -109q0 -10 -20 -16q-29 -12 -141.5 -81t-208.5 -126q-88 -51 -105 -51h-2q-12 6 -14 278z" />
<glyph unicode="J" horiz-adv-x="987" d="M82 786v5q6 10 70 10q86 0 179 -63.5t134 -149.5q23 -49 35 -49q10 0 45 57q51 90 134 147.5t161 57.5q57 0 65 -15v-4q0 -18 -47 -123q-47 -104 -47 -147v-8q2 -10 2 -19q0 -16 -6 -28q-12 -18 -25 -27q-12 -8 -12 -31q0 -2 2 -4q0 -29 27 -76q14 -31 16 -81v-7 q0 -47 -14 -84q-8 -20 -20.5 -27t-41.5 -7q-53 0 -83.5 22.5t-82.5 102.5q-59 94 -71 94q-14 0 -56 -72q-45 -82 -88 -115q-42 -30 -95 -30h-3h-6l-64 4l-10 65q-4 23 -4 43q0 18 4 35q6 35 16.5 63.5t18.5 51.5q6 14 6 29v10q-4 16 -22 26q-18 8 -23 21q-2 6 -2 16t2 23 q2 6 2 14q0 31 -22 86q-27 68 -52 125q-23 47 -22 59z" />
<glyph unicode="K" horiz-adv-x="1351" d="M82 942v16q0 92 20 154q23 68 78 127q61 70 78 70q14 0 128 -114t114 -128q0 -12 -76 -86t-76 -90q0 -12 41 -61.5t96.5 -110t71.5 -84.5q35 -47 157 -168t134 -121q10 0 89 62.5t95 62.5t127 -111.5t111 -130.5q0 -20 -47 -58t-109 -67q-55 -25 -88 -28q-18 -4 -53 -4 q-27 0 -66 2q-160 10 -296 86t-298 243q-109 115 -169 255.5t-62 283.5z" />
<glyph unicode="L" horiz-adv-x="1351" d="M82 53v78l479 465v125q0 84 7 117.5t32 81.5q74 141 238 184q49 14 82 14q37 0 55 -18q6 -7 6 -15t-109.5 -127.5t-109.5 -148.5q0 -33 84 -124t112 -91q29 0 156 125q108 110 125 110q8 0 16 -16q14 -27 15 -61q0 -39 -17 -88q-31 -98 -96 -162q-63 -59 -172 -84 q-49 -10 -92 -10q-51 0 -94 16h-2q-16 0 -72 -47q-59 -51 -209 -201q-188 -186 -231 -221t-84 -35q-66 0 -92.5 30t-26.5 103z" />
<glyph unicode="M" horiz-adv-x="784" d="M82 258q0 141 80 258l55 80l-47 53q-31 35 -40 56.5t-9 64.5q0 104 78 162q45 31 96 31q39 0 80 -17q76 -33 102 -119q8 -31 8 -57q0 -51 -30 -92l-31 -41l59 -43q86 -57 142.5 -150.5t68.5 -193.5l8 -68l-73 -35q-104 -45 -258 -65q-74 -10 -131 -10q-63 0 -105 12 q-23 6 -31 22.5t-16 69.5q-6 41 -6 82z" />
<glyph unicode="N" horiz-adv-x="819" d="M82 487v13q0 39 20 106q16 59 69 119.5t116 91.5q37 20 110 21h23q88 -4 137 -29q80 -41 128 -111.5t52 -146.5v-23q0 -63 -18 -125q-23 -72 -81 -125t-138 -69q-53 -10 -101 -10q-184 0 -274 174q-39 74 -43 114zM174 504q0 -10 10 -19q20 -23 82 -28l68 -8l8 -70 q6 -70 29 -94q12 -16 30 -17q12 0 27 6q23 10 30 26.5t9 70.5l4 78l82 8q57 4 71.5 10t16.5 29q2 8 2 14q0 25 -16 35q-23 14 -84 14h-72l-4 76q-4 74 -18.5 92t-47.5 18t-39 -16q-6 -18 -10 -88l-4 -68l-69 -12q-63 -10 -91 -33q-14 -12 -14 -24z" />
<glyph unicode="O" horiz-adv-x="778" d="M82 596q0 61 29 123q47 100 145 153q72 37 139 37q102 0 197 -84q104 -90 104 -227q0 -68 -14 -105.5t-59 -89.5q-33 -37 -41.5 -59t-10.5 -94q-4 -100 -22 -100q-10 2 -23 26q-14 27 -49 70q-20 29 -36.5 37t-53.5 8q-90 0 -178 68.5t-117 160.5q-10 37 -10 76zM248 578 q0 -70 49 -105q39 -29 96 -29q29 0 62 7q31 4 45 15t26 42q20 47 21 80q0 29 -20 69t-40 56q-16 14 -57 22q-25 2 -43 2q-16 0 -29 -2q-35 -6 -69.5 -49t-40.5 -88v-20z" />
<glyph unicode="P" horiz-adv-x="837" d="M82 735q0 63 21.5 88t105.5 51q12 6 12 17q0 8 -9 27.5t-19.5 38t-19.5 45t-9 49.5q0 61 38.5 117.5t106.5 91.5q39 20 107 20t106 -18q35 -18 71 -65.5t54 -115.5q4 -20 4 -39q0 -51 -33 -102q-27 -43 -26 -59q0 -18 26 -52q18 -23 22.5 -72.5t4.5 -256.5v-295l55 -51 q35 -33 45.5 -52.5t10.5 -56.5q0 -57 -35 -90q-25 -27 -61.5 -31t-229.5 -4q-184 0 -225 4t-64 27q-29 25 -32 78v18q0 43 14 78q18 43 49 43q47 0 47 156q0 266 -39 280q-23 8 -60.5 43t-37.5 88zM210 714q11 -5 33.5 -14.5t41.5 -25.5q23 -20 26.5 -60.5t3.5 -232.5 q0 -176 -4 -223t-20 -62q-14 -14 -32.5 -21t-30 -11.5t-13.5 -12.5q0 -8 98 -14q100 -6 195 -6q92 0 123 6q6 2 6 8q0 12 -29 37l-4 4l-47 39l-14 641l-111 2h-41q-192 0 -192 -37q0 -12 11 -17zM281 1044q2 -45 26.5 -75.5t63.5 -44.5q18 -8 39 -9q23 0 47 9 q43 12 65.5 42.5t24.5 65.5v19q0 23 -2 43q-7 27 -17 43q-16 23 -34.5 28.5t-75.5 5.5q-63 0 -79.5 -6t-37.5 -39q-22 -34 -22 -70q0 -7 2 -12z" />
<glyph unicode="Q" horiz-adv-x="1423" d="M82 481l22 60q14 39 23.5 107.5t18 125.5t49 140t116.5 165q74 80 172 119q94 37 181 37h10q92 -2 158.5 -13.5t115.5 -29.5q82 -31 147.5 -91.5t101.5 -124t59.5 -134t31.5 -117.5t8 -78q0 -45 23 -106l22 -60l-34 -30q-35 -29 -78 -175q-27 -102 -45.5 -136t-67.5 -87 q-82 -86 -129 -86q-18 0 -31 13q-14 12 -14 43q0 29 10 118q16 143 29 174q12 33 39 33h10q35 -8 78 -57q2 -4 6 -8q29 -35 41 -35q2 0 4 2q8 8 35 94q4 10 4 14q18 57 21 86v7q0 25 -9 36q-10 14 -23 63.5t-20 125.5q-10 94 -55 194.5t-100 149.5q-117 102 -281 108h-20 q-152 0 -269 -86q-66 -49 -86 -88q-59 -104 -78.5 -173.5t-25.5 -136t-25 -124.5q-12 -43 -12 -69q-2 -2 -2 -7q0 -25 10 -71q18 -82 37 -105q10 -14 16 -14q4 0 7 2q8 4 36 39q33 39 68 49q8 2 19 2q20 0 32 -16q14 -18 33 -174q10 -92 10 -125v-6q-2 -33 -14 -45t-33 -13 q-47 0 -129 86q-49 53 -66.5 87t-45.5 136q-41 145 -76 175z" />
<glyph unicode="R" horiz-adv-x="763" d="M82 430v6q2 88 72 168q47 53 92 70q35 12 86 12h26q137 -8 205 -133q20 -41 25 -115v-24q0 -55 -15 -84q-6 -10 -6 -21q0 -6 4 -12q8 -16 50 -59q53 -53 59 -70q2 -4 2 -6q0 -16 -20 -39q-23 -23 -41 -23q-6 0 -11 2q-25 6 -73 54q-41 43 -56 49h-12q-14 0 -37 -6 q-49 -18 -96 -19q-104 0 -191 94q-63 72 -63 156zM211 432q0 -29 106 -29h33q72 4 90.5 9.5t18.5 23.5t-18.5 23.5t-94.5 7.5h-37q-76 0 -90 -14q-8 -10 -8 -21z" />
<glyph unicode="S" horiz-adv-x="1048" d="M82 662l57 65q57 66 219 233.5t166 167.5q10 0 70 -61q37 -37 53 -45q8 -6 15 -6q4 0 8 4q4 8 22 18q12 8 31 9q8 0 16 -3q29 -2 35 -15t8 -79l4 -88l97 -98q63 -63 78 -82q6 -10 6 -18t-9 -15q-14 -10 -18 -65.5t-6 -229.5l-4 -276h-123l-14 414h-152l-14 -414h-467 l-6 559zM223 475q0 -29 2 -67l4 -109h275v246l-133 4h-45q-92 0 -97 -14q-6 -12 -6 -60z" />
<glyph unicode="T" horiz-adv-x="575" d="M82 432q0 82 16 123q18 51 86 82q51 23 58 37v4q0 12 -29 29q-23 16 -23 36v5q2 20 15 61q6 18 6 45q0 33 -8 80q-12 82 -13 143q0 88 29 127q27 33 57 33h7q35 -4 63 -43q20 -27 25.5 -67t5.5 -187t-5 -185t-24 -53q-16 -14 -16 -22l-2 -2q0 -10 10 -21q18 -23 51 -22 q31 0 59.5 -26.5t36.5 -63.5q6 -27 7 -76q0 -68 -13 -178q-23 -193 -45 -193q-12 0 -12 211q0 223 -29 250q-6 6 -14 6q-10 0 -23 -8q-14 -8 -20 -46t-12 -159q-6 -86 -9.5 -133t-8.5 -75.5t-9 -34.5t-12 -7h-4q-16 6 -31 222q-14 229 -43 239h-2q-10 0 -27 -16 q-16 -14 -20 -56t-4 -180q0 -213 -17 -213q-16 0 -32.5 81t-22.5 196q-2 31 -2 57z" />
<glyph unicode="U" horiz-adv-x="765" d="M82 391q0 14 2 33q6 92 47 154q64 94 168 127q43 14 82 14q41 0 80 -14q76 -27 132 -81.5t81 -136.5q10 -41 10 -84q0 -41 -10 -81q-12 -49 -66.5 -114t-101.5 -89q-35 -18 -113 -19q-6 -2 -10 -2q-72 0 -113 19q-49 20 -94 62t-67 89q-27 51 -27 123zM207 430 q0 -74 45 -115q43 -41 115 -41h20q35 0 62 -8q31 -12 41 -23.5t26 -15.5h6q12 0 21 11q20 14 20 32v4q-2 18 -28 33q-18 8 -21 23q-2 6 -2 16q0 14 2 37q2 16 2 33q0 37 -10 69q-18 47 -53 72q-33 23 -95 23q-63 0 -92 -23q-59 -49 -59 -127z" />
<glyph unicode="V" horiz-adv-x="1374" d="M82 678q0 127 16 145q18 18 252 21l234 4l4 76q6 108 50 108h1q47 0 219 -139q82 -66 96 -66q16 0 166 -108.5t164 -128.5q8 -10 8 -23q0 -12 -8 -24q-18 -29 -536 -396q-68 -49 -101 -49q-27 0 -42 32t-15 85q0 47 -17 57q-12 8 -234 13.5t-233 17.5q-12 10 -22 252 q-2 72 -2 123z" />
<glyph unicode="W" horiz-adv-x="1370" d="M82 592q0 203 16 219q18 18 424 18t422 -18q18 -16 19 -47q0 -47 32 -47q16 0 41 12q20 10 68 39q65 41 96 53q35 16 53 17q10 0 15 -7q18 -20 20 -221v-231q-4 -49 -16 -53q-2 -2 -6 -2q-20 0 -72 26q-63 29 -127 72q-47 31 -70 31h-4q-25 -4 -28 -45q-6 -45 -27 -56 q-35 -18 -315 -20h-103q-293 0 -353.5 4t-70.5 22q-14 29 -14 234z" />
<glyph unicode="X" horiz-adv-x="1292" d="M82 588q0 25 2 45q25 156 127 282t254 183q55 20 92 26q18 2 49 2q25 0 56 -2q96 -6 163.5 -27.5t141.5 -72.5q55 -37 121.5 -120t87.5 -140q34 -84 34 -175v-5q0 -66 -16 -131q-39 -168 -156 -285q-133 -129 -391 -129q-193 2 -311.5 71.5t-200.5 229.5q-29 57 -43 145 q-10 57 -10 103zM201 537q0 -51 16 -74q12 -18 33 -19q6 0 14 2q16 2 21 17q2 8 2 20q0 14 -2 35q-5 70 -25 86q-23 16 -35 17q-8 0 -12 -5q-12 -14 -12 -79zM225 723q0 -6 4 -10q6 -6 39 -11q6 -2 11 -2q14 0 22 9q12 10 31 49q20 43 22 55v2q0 13 -14 23q-20 16 -31 16 q-20 0 -57 -63q-27 -47 -27 -68zM270 336q0 -12 21 -39q10 -14 14 -16q2 0 4 2v4q0 6 -2 16q-4 33 -22 39q-4 2 -9 2q-6 0 -6 -8zM356 494q0 -70 107 -101q31 -8 49 -8q16 0 25 6q18 12 28 76q4 27 4 41v12q-6 11 -41 25q-47 18 -96 28q-25 4 -39 5q-14 0 -18 -7 q-6 -12 -17 -55q-2 -12 -2 -22zM393 924q0 -14 10 -15q12 0 41 21q39 29 39 43q0 2 -2 4t-8 2q-18 0 -49 -21.5t-31 -33.5zM399 682q0 -4 2 -6q12 -8 97 -31q47 -12 71 -12q14 0 21 4q18 10 28 76q2 16 3 30q0 23 -9 33q-14 17 -75 35q-57 16 -66 16q-12 0 -45 -71 q-27 -57 -27 -74zM412 297q0 -20 28 -68q37 -61 56 -61q20 0 22 53v4q0 48 -18 62q-20 18 -49 24q-10 2 -17 2q-14 0 -20 -8q-2 -4 -2 -8zM541 901q2 -16 55 -31q18 -6 31 -6q14 0 22 8q15 13 27 68q2 14 2 25q0 26 -15 26h-1q-18 0 -76 -41q-45 -33 -45 -49zM582 150 q0 -20 20 -21h4q23 4 64 33q59 41 59 63q0 8 -8 13q-4 4 -14 6l-56 16h-8q-12 0 -22 -10q-12 -16 -31 -66q-8 -20 -8 -34zM647 356l70 -18q68 -18 90 -19q20 0 43.5 34t32.5 75q2 12 2 18q0 12 -4 19q-11 6 -64 18q-16 4 -47 11.5t-42 9.5t-30 2q-18 0 -25 -10.5t-14.5 -30 t-9.5 -51.5zM702 600l97 -22q55 -12 84 -13q16 0 24 4q23 10 23 72q0 51 -17.5 68.5t-83.5 33.5q-63 14 -75 15q-20 0 -33.5 -26.5t-15.5 -72.5zM758 885q0 -37 7 -44t50 -12h10q43 0 47 15v4q1 19 -34 74q-39 57 -50 57q-27 0 -30 -94zM823 172q0 -4 6 -4q18 0 38 9.5 t20 19.5q0 12 -13 12q-6 0 -18 -4q-14 -6 -22 -17q-10 -12 -11 -16zM936 301q2 -22 30 -22h3q27 0 65 63q27 45 29 57v2q-1 11 -19 23q-23 16 -36 16q-6 0 -11 -2q-18 -10 -41 -59q-20 -51 -20 -74v-4zM971 846q0 -12 18 -39q12 -16 25 -16q6 0 10 2q6 4 6 10q0 10 -14 26 q-25 25 -37 25h-4q-4 -4 -4 -8zM1012 612q0 -49 5 -64.5t25 -21.5q14 -6 25 -6q12 0 18 8q6 14 7 58v22q-4 45 -10.5 60.5t-24.5 23.5q-14 4 -23 4q-12 0 -14 -6q-8 -14 -8 -78z" />
<glyph unicode="Y" horiz-adv-x="538" d="M82 391q0 39 2 53q4 29 25 39q26 15 26 62q0 51 47 98t92 47q41 0 80 -35q43 -37 43 -75q0 -39 -10 -39h-2q-10 0 -23 43q-20 63 -86 65h-2q-63 0 -94 -63q-14 -31 -14 -49q0 -16 8 -25q18 -20 92 -25q18 -2 35 -2q20 0 35 4q27 4 35 11q6 6 12 6h4q8 -2 29 -14 q0 -2 2 -3q39 -23 39 -174q0 -49 -4 -110l-9 -99h-356l-4 181q-2 66 -2 104z" />
<glyph unicode="Z" horiz-adv-x="1099" d="M82 684q0 17 16 35q24 26 72 26h4h4q53 -2 88 -28q25 -18 81 -22.5t308 -4.5q356 0 363 -18v-4q0 -27 -62 -174q-68 -164 -92 -191q-14 -16 -55 -20t-197 -4h-104q-4 -2 -10 -3q-20 0 -49 5q-35 4 -45.5 5t-31 13t-24.5 18.5t-15 30t-14.5 39.5t-13.5 55q-2 10 -4 17 q-27 111 -54.5 143.5t-88.5 32.5q-49 0 -68 27q-8 10 -8 22zM229 193q1 11 17 34q18 31 57 37q6 2 14 2q27 0 45 -18q16 -16 17 -55v-7q-2 -45 -21 -59q-16 -14 -39 -14q-10 0 -22 4q-37 8 -55 41q-12 23 -13 35zM793 178q0 12 16 37q25 37 55 37q8 0 21 -4q43 -14 43 -72 q0 -61 -45 -74q-10 -2 -19 -2q-35 0 -59 43q-12 23 -12 35z" />
<glyph unicode="[" />
<glyph unicode="\" />
<glyph unicode="]" />
<glyph unicode="a" horiz-adv-x="733" d="M82 463q0 250 16.5 266t266.5 16q158 0 208 -4t60 -16q18 -23 18 -260q0 -240 -18 -262q-18 -20 -111 -21q-84 0 -126 -14t-99 -62q-44 -36 -63 -36h-1q-10 0 -12 12q-2 6 -2 14q0 23 -30.5 54.5t-51.5 31.5q-20 0 -29.5 6.5t-16.5 39t-8 82.5t-1 153z" />
<glyph unicode="b" horiz-adv-x="905" d="M82 479q0 227 4 282.5t20 65.5q25 14 347 15q319 0 346 -17q18 -8 21 -58t3 -286q0 -217 -3 -278.5t-19 -77.5q-14 -18 -68.5 -22.5t-275.5 -4.5q-213 0 -272.5 4t-78.5 19q-16 16 -20 71.5t-4 286.5zM154 260q4 -41 28 -55q12 -8 29 -8q14 0 33 6q39 14 45 57v10 q0 34 -29 54q-33 23 -41 22q-8 0 -39 -20q-27 -20 -26 -56v-10zM178 492q0 -12 4 -21q10 -23 37 -27q86 -10 129 -61q33 -43 33 -104q0 -14 -2 -31q-6 -33 -6 -47q0 -8 2 -11q4 -8 31 -8q47 0 57 66q2 16 2 33q0 51 -25 112q-33 78 -96 111q-47 25 -98 31q-12 2 -23 2 q-33 0 -39 -17q-6 -16 -6 -28zM178 719q0 -12 2 -25q4 -27 16.5 -34t71.5 -13q74 -6 120 -29.5t101 -82.5q61 -66 78 -105t23 -131l8 -111h109l4 66v20q0 57 -19 134q-25 88 -61 145q-39 63 -114.5 119.5t-145.5 79.5q-70 20 -125 20t-62 -18q-6 -14 -6 -35z" />
<glyph unicode="c" horiz-adv-x="931" d="M82 326q0 20 6 28q12 20 78 21q133 0 209 -107q43 -57 53 -57v-2q10 0 10 76q0 55 -6 67.5t-39 26.5q-98 43 -129 145q-12 35 -12 70q0 63 37 123q25 39 45 41q20 0 28 -39q8 -41 29 -60q12 -8 19 -8h4q6 2 18 19q21 26 21 57q0 29 12 39q4 6 10 6t12 -4q12 -10 17 -31 q6 -27 18 -61l15 -35l26 33q27 33 27 59q0 27 12 27q10 0 23 -10q51 -37 65 -125q4 -20 4 -39q0 -16 -2 -31q-6 -41 -21.5 -65.5t-68.5 -75.5q-61 -57 -71.5 -77t-10.5 -77q0 -86 21 -86h2q8 2 18 27q14 37 137 161q113 115 136 115h2q14 -8 14 -178v-170l-43 -35 q-31 -27 -66.5 -32t-212.5 -5h-24q-61 0 -91 1t-78 4.5t-72.5 10.5t-57.5 21.5t-51.5 36t-35 53t-26.5 74.5t-10 68z" />
<glyph unicode="d" horiz-adv-x="897" d="M82 504l2 135q2 96 7 121t30 45t54.5 25.5t127.5 5.5l146 -2l63 -62q66 -61 188 -197q84 -90 103 -116q12 -20 12 -37q0 -8 -2 -14q-16 -43 -144 -176.5t-155 -133.5q-29 0 -231 203zM164 737q0 -12 10 -22q8 -10 19 -10q8 0 18 6q16 8 16 24v6q-2 10 -10 18.5t-16 10.5 h-6q-18 0 -27 -16q-4 -10 -4 -17zM188 496q0 -16 155 -172t171 -156t128 120t112 136q0 18 -147.5 169.5t-168.5 151.5q-20 0 -135 -114.5t-115 -134.5z" />
<glyph unicode="e" horiz-adv-x="751" d="M82 389v21q4 53 24 96q41 76 100.5 118t119.5 48q29 2 53 2q25 0 45 -2q41 -6 68 -17q88 -37 137 -118q41 -72 41 -152v-23q-8 -94 -72 -165q-49 -53 -101.5 -77t-125.5 -24q-74 0 -132.5 29t-92 75t-50.5 101q-14 45 -14 88zM229 397q0 -10 7 -14q8 -8 34 -12 q27 -2 34 -15.5t11 -76.5q6 -68 12.5 -80.5t37.5 -14.5h12q33 0 47 19q14 20 18 88q2 49 8.5 63.5t26.5 16.5q47 6 47 32q0 12 -12 29q-12 16 -47 55q-37 41 -55 64l-33 43l-78 -90q-70 -78 -70 -107z" />
<glyph unicode="f" horiz-adv-x="768" d="M82 367v8q2 94 64.5 176t154.5 113q29 10 68 10q25 0 55 -4q74 -12 123 -41q61 -37 61 -49q0 -4 25.5 -45t44.5 -105q8 -33 8 -63q0 -31 -8 -60q-18 -68 -62.5 -127t-93.5 -82q-59 -28 -119 -28h-4q-16 0 -32 2q-80 10 -143.5 47t-102.5 106q-39 66 -39 142zM246 373 q0 -16 59 -105q68 -100 82 -100q12 0 77.5 87t65.5 103v2q0 20 -32 21q-25 0 -30 11t-9 63q-4 75 -18.5 92.5t-51.5 17.5q-39 0 -53 -16q-12 -16 -17.5 -85t-33 -74t-39.5 -15v-2z" />
<glyph unicode="g" horiz-adv-x="774" d="M82 385v21q6 82 61.5 156.5t149.5 107.5q49 16 84 18h4q35 0 92 -14q66 -16 127.5 -77.5t79.5 -129.5q12 -43 12 -84q0 -31 -6 -61q-16 -72 -58 -121t-104 -82q-57 -33 -125 -33h-8q-72 2 -145 35q-86 43 -127 123q-37 70 -37 141zM190 385q0 -35 17 -49q20 -16 90 -21 q49 -2 63.5 -8t18.5 -28q8 -35 24 -35q18 0 100.5 67.5t82.5 81.5t-37 46t-57 32q-12 0 -37 29q-24 26 -45 26h-2h-2q-25 -2 -29 -30q-2 -23 -17.5 -29t-76.5 -10l-88 -8l-5 -50v-14z" />
<glyph unicode="h" horiz-adv-x="768" d="M82 385q0 68 37 135q61 115 196 158q33 10 66 10q63 0 135 -37q106 -59 150 -164q20 -49 20 -100q0 -14 -2 -31q-8 -68 -44 -121t-90 -95t-120 -50q-23 -4 -43 -4q-47 0 -94 14q-55 16 -113.5 73.5t-79.5 113.5q-18 49 -18 98zM195 385q2 -8 44 -47t87 -68q29 -20 41 -20 q8 0 10 6l12 43q6 20 80 20q66 0 88 19q16 14 16 51v14l-4 46l-90 8q-59 4 -74.5 10.5t-19.5 26.5q-2 23 -10 28q-4 2 -8 2q-6 0 -13 -4q-12 -8 -24.5 -19.5t-26.5 -21.5t-24 -10q-18 0 -54 -35q-31 -31 -30 -45v-4z" />
<glyph unicode="i" horiz-adv-x="841" d="M82 291q0 10 103.5 71.5t185.5 102.5q55 29 69 29h2q12 -2 31 -37q16 -29 29.5 -35t58.5 -6q66 0 123 43q47 35 64 35q4 0 6 -2q6 -4 6 -21q0 -16 -4 -45q-10 -59 -29 -117q-12 -41 -61.5 -84t-81.5 -43q-37 0 -70 -15t-33 -32q0 -16 -18 -43q-8 -10 -23 -10q-10 0 -20 6 q-31 10 -158 86q-180 106 -180 117z" />
<glyph unicode="j" horiz-adv-x="841" d="M82 463q0 16 4 22q2 4 6 4q14 0 49 -32q41 -35 76 -45q25 -10 62 -11q14 0 28 2q33 4 44 10.5t14 28.5q4 35 18 47q4 6 12 7q8 0 17 -9q16 -16 34 -16q14 0 146.5 -76t157.5 -98q10 -8 10 -14v-2q-4 -8 -23 -23q-53 -39 -196 -119q-137 -76 -152 -76h-2q-12 4 -20 43 q-4 33 -29 45.5t-98 24.5q-68 10 -97.5 59.5t-56.5 190.5q-4 23 -4 37z" />
<glyph unicode="k" horiz-adv-x="737" d="M82 383q0 29 8 53q16 57 59 119t82 82q43 23 121 25h15q68 0 110 -19q41 -16 86 -62t70 -94q22 -43 22 -92q0 -51 -18 -104q-41 -113 -131 -160q-57 -31 -135 -33h-13q-72 0 -120 25q-76 35 -123 135q-33 68 -33 125zM233 483q0 -8 3 -12q8 -14 20 -14q20 0 51 35 q27 29 58 30h2q29 0 47 -26q4 -8 4 -17q0 -6 -2 -12q-8 -16 -39 -49q-41 -43 -47 -74v-8q0 -23 26 -29h4q12 0 19 8q8 10 25.5 39t41.5 54q43 39 43 77v7q-4 40 -55 69q-39 16 -72 17q-20 0 -36 -5q-47 -16 -74 -49q-18 -25 -19 -41zM317 223q0 -10 9 -20q14 -21 43 -21 q35 0 34 29v8q-4 35 -34 43q-4 2 -9 2q-18 0 -34 -20q-8 -10 -9 -21z" />
<glyph unicode="l" horiz-adv-x="616" d="M82 135q0 27 133 160l135 135l-33 23q-33 25 -133 127q-82 82 -96 120q-4 8 -4 19q0 27 29 47q20 14 39 14q12 0 24 -6q31 -14 96 -80q47 -47 124 -116.5t108 -102.5t31 -53q0 -33 -178.5 -199t-213.5 -166q-27 0 -44 22.5t-17 55.5z" />
<glyph unicode="m" horiz-adv-x="630" d="M82 422q0 23 59.5 81t239.5 220q74 63 90 63q25 0 51.5 -25.5t26.5 -47.5q0 -25 -66.5 -94.5t-160.5 -145.5l-54 -45l142 -133q111 -106 131 -143q6 -14 6 -27q0 -25 -25 -47q-16 -14 -37 -15q-20 0 -41 13q-47 27 -190 160q-172 156 -172 186z" />
<glyph unicode="n" horiz-adv-x="1036" d="M82 176q0 12 2 25q8 45 45 75q27 23 36 41.5t9 53.5q0 57 13.5 65t158.5 17q102 6 123 12q18 4 18 20v4q-4 27 -49 37q-55 12 -70.5 36t-15.5 100q0 92 16.5 108t147.5 16q123 0 151.5 -20.5t28.5 -103.5q0 -53 -6 -72t-31 -37q-37 -29 -69 -29q-29 0 -39 -20 q-4 -8 -4 -15q0 -14 12 -26q14 -18 111 -19h39l131 5l8 -72q4 -49 12 -64.5t42 -32t42 -30.5t10 -64v-20q0 -45 -14 -60q-20 -18 -100 -22h-29q-57 0 -76 14q-24 17 -24 79v5q0 98 73 111q27 6 33 41q2 6 2 12q0 25 -18 39q-16 14 -96 14h-39l-115 -4l-4 -45v-10 q0 -20 6 -29q8 -12 43 -29.5t44 -30.5t11 -52q2 -16 2 -31q0 -47 -16 -62q-23 -20 -111 -20q-100 0 -116.5 16.5t-16.5 81.5q0 47 7.5 61.5t41.5 33.5q39 25 54 53q4 10 4 22q0 14 -11 29q-14 16 -98 16h-37l-118 -4l-5 -47v-12q0 -18 5 -27q6 -10 34 -20q37 -12 52.5 -37 t15.5 -70q0 -63 -21.5 -79.5t-101.5 -16.5q-63 0 -82.5 5t-32.5 24q-18 29 -18 61z" />
<glyph unicode="o" horiz-adv-x="819" d="M82 436q0 2 2 6q2 23 35 56q23 23 58.5 35t63 15t53 15t30.5 37q2 6 2 14q0 23 -9 62q-16 53 -16 92q0 59 37 88q29 25 43 25q4 0 8 -2q14 -6 23 -109q6 -88 26.5 -128t85.5 -95q37 -29 60.5 -39t58.5 -10q41 0 52.5 -8.5t27.5 -43.5q14 -35 14 -79q0 -23 -4 -48 q-8 -72 -23.5 -91t-60.5 -19q-47 0 -88 -45q-29 -33 -51.5 -39t-108.5 -10q-35 -2 -61 -2q-31 0 -45 4q-27 4 -51 22q-37 29 -86 105q-45 66 -45 84q0 2 2 4q4 6 4 12q0 14 -17 37q-20 33 -20 55z" />
<glyph unicode="p" horiz-adv-x="811" d="M82 569q0 23 14 31t15 49q0 35 32.5 87.5t87.5 99.5q35 31 57.5 38t86.5 7h8q147 0 207 -72q16 -23 53 -23q49 0 67.5 -31.5t18.5 -117.5q0 -90 -19.5 -122t-76.5 -32q-49 0 -113 -55q-123 -104 -123 -244q0 -43 -4 -57t-16 -14q-57 0 -76 51q-8 20 -8 47q0 37 16 88 t17 70q0 16 -15 37q-18 29 -54 33.5t-77 12t-67 37.5q-25 29 -29 66q-2 6 -2 14z" />
<glyph unicode="q" horiz-adv-x="880" d="M82 459q0 37 6 76q16 123 72 182q61 68 155 98q61 18 121 19q33 0 66 -7q37 -8 55 -8q6 0 10 2q16 2 41 27q35 35 43 35q16 0 28.5 -30t29 -98.5t24.5 -97.5q4 -16 4 -30q0 -18 -8 -29q-18 -18 -72 -18q-51 0 -136 15t-95 26q-4 2 -4 8q0 12 22 39q25 31 25 49q0 8 -4 12 q-8 12 -33 12q-14 0 -35 -4q-57 -10 -95 -30.5t-77 -65.5q-67 -75 -67 -163q0 -19 4 -38q14 -111 119 -194q35 -29 58 -36t81 -7h8q102 0 174 57t96 168q10 51 33 72q12 10 23 10q12 0 24 -10q20 -18 21 -43q0 -27 -21 -95q-16 -61 -69.5 -125.5t-106.5 -93.5 q-41 -22 -161 -22h-11q-129 0 -172 22q-47 25 -90 75t-62 101q-24 61 -24 134v6z" />
<glyph unicode="r" horiz-adv-x="944" d="M82 567q0 113 123 174q41 20 76 27h20q23 0 45 -6q33 -12 55.5 -24.5t59.5 -39.5q6 -4 12 -4q8 0 21 8q18 12 51 35t65 29q18 4 37 4q53 0 109 -33q74 -43 96 -110q10 -33 10 -66q0 -162 -241 -354q-96 -78 -142 -80l-4 -2q-47 0 -131 63q-213 162 -252 320 q-10 31 -10 59z" />
<glyph unicode="s" horiz-adv-x="948" d="M82 342q0 27 237 262l238 238l133 -4q131 -4 154 -23q12 -10 17 -44t5 -126v-153l-211 -211q-209 -211 -241 -226q-10 -4 -21 -4q-25 0 -49 19q-39 27 -147 133q-115 113 -115 139zM662 702q0 -16 12 -40q12 -23 49 -25q4 -2 10 -2q29 0 47 18q16 16 17 45v11 q-4 37 -27 49q-25 12 -41 12h-4q-16 -2 -38.5 -24.5t-24.5 -38.5v-5z" />
<glyph unicode="t" horiz-adv-x="915" d="M82 623q0 27 14 77q25 82 60 113.5t123 56.5q20 4 57 4h49q70 -6 84 -20q14 -12 37 -12q20 0 55 -37q47 -53 60 -94q6 -27 6 -76q0 -27 -2 -62l-7 -118l109 -115q72 -76 90 -102q16 -25 17 -50v-8q-4 -31 -12.5 -40t-39.5 -11h-6q-29 0 -51 14q-27 16 -104 95l-113 110 l-84 -8q-41 -4 -74 -4q-43 0 -71 8q-55 12 -107 57q-37 33 -51.5 58.5t-26.5 79.5q-12 55 -12 84zM125 610q0 -29 8 -57q23 -80 78 -123t135 -43q104 0 165.5 60.5t61.5 162.5q0 127 -108 199q-47 35 -100 35q-12 0 -25 -2q-68 -10 -120 -48t-79 -104q-16 -41 -16 -80z" />
<glyph unicode="u" horiz-adv-x="835" d="M82 379q0 18 2 37q6 109 53 147q12 10 23 10q18 0 28 -41q2 -6 2 -12q10 -51 31 -74q14 -14 23 -14q8 0 22 12q39 31 53 105q8 57 9 104v29q-4 59 -15 76q-8 18 -8 30q0 7 2 13q6 10 15 10h4q10 -4 49 -33q49 -37 81.5 -97t44 -108.5t31.5 -76.5q14 -23 37 -23q6 0 15 2 q18 6 18 57v33q-4 39 -4 60q0 27 4 30h4q16 0 66 -59q53 -68 65 -109q16 -55 17 -125v-22q-4 -84 -29 -137q-23 -49 -85 -97.5t-103 -48.5q-29 0 -29 15h-2q0 12 26 20q39 12 69 57.5t30 90.5q0 86 -47 139q-16 18 -27 18q-12 0 -18 -24q-2 -4 -2 -11q-4 -27 -15 -26 q-4 0 -10 4q-14 14 -25 49q-10 39 -38 74q-27 31 -41 31h-5q-14 -6 -14 -74q0 -70 -20 -94q-10 -14 -19 -15h-2q-8 2 -31 31q-25 29 -30 31h-2q-6 0 -19 -19q-33 -43 -33 -92q0 -20 9 -45q20 -76 96 -111q57 -29 57 -45q0 -12 -22 -12q-16 0 -43 6q-127 31 -197 142 q-51 80 -51 182z" />
<glyph unicode="v" horiz-adv-x="864" d="M82 274v185q0 186 9 194.5t267 8.5h256l23 -33q23 -35 51 -35q27 0 62 -35q20 -20 26 -41.5t6 -75.5q0 -53 -6 -74.5t-26 -41.5q-35 -35 -70 -35q-37 0 -82 -47l-45 -49h-391zM635 436q2 -66 22 -90q10 -14 27 -14q13 0 27 10q10 6 19 39t13 72v14q0 31 -10 55 q-14 31 -45 31q-33 0 -45 -27q-8 -23 -8 -61v-29z" />
<glyph unicode="w" horiz-adv-x="933" d="M82 172q0 27 94 186l154 263q59 104 86 141q25 37 55 37h10q35 -6 62 -62q23 -45 102.5 -187t143 -257t63.5 -129q0 -18 -12.5 -27.5t-57.5 -14.5t-116.5 -7t-208.5 -2q-315 0 -355 16q-20 10 -20 43zM426 547q0 -43 10 -111q12 -111 33 -110h4q20 10 39 141q8 76 8 104 q0 29 -10 41q-18 23 -37 23q-16 0 -33 -21q-14 -16 -14 -67zM428 240q0 -12 8 -29q12 -23 37 -23t39 23q6 10 6 20q0 13 -8 25q-18 20 -41 20h-4q-25 -2 -33 -20q-4 -8 -4 -16z" />
<glyph unicode="x" horiz-adv-x="796" d="M82 195v90q0 115 5 147.5t26 59.5q20 25 31.5 71.5t16.5 88.5t33.5 88t79.5 73q43 23 111 27h16q57 0 97 -19q68 -29 107.5 -90t39.5 -137q0 -53 35 -94q25 -29 30 -59.5t5 -153.5v-78q0 -16 -3 -43l-4 -36t-12.5 -25.5t-16.5 -19.5t-27.5 -11t-35.5 -8q-14 0 -51 -3 q-29 -4 -51 -4q-6 0 -12 2h-148q-66 2 -92 2q-27 0 -65.5 4.5t-50 6.5t-30 15t-21.5 21.5t-8 36t-5 48.5zM248 596q0 -55 16 -66q16 -10 135 -10q8 -2 19 -2q102 0 114 12q16 10 17 64q0 53 -43 102q-27 31 -45.5 40t-59.5 9q-39 0 -58 -9t-50 -38q-29 -29 -37 -48t-8 -54z M315 334q0 -16 23.5 -57t32.5 -74q8 -41 35 -41q16 0 24 15.5t10 37t7.5 45t17.5 35.5q14 14 14 33v12q-6 24 -35 47q-37 29 -47 29q-16 0 -49 -33t-33 -49z" />
<glyph unicode="y" horiz-adv-x="860" d="M82 428q0 70 4 80q8 20 305 20h31q328 -2 344 -22q12 -14 12 -131v-66l-4 -176h-686l-4 178q-2 72 -2 117zM127 193q0 -8 2 -17q6 -20 29 -20q4 0 10 2q29 4 59.5 21.5t69.5 29.5q18 6 33 6q14 0 24 -6q12 -6 21 -6q6 0 10 4q9 8 27 51q20 45 20 64q0 8 -2 12 q-12 10 -80 20q-35 4 -49 4h-6q-4 -2 -4 -8t2 -14q2 -6 2 -10q0 -12 -8 -21q-14 -14 -68 -41q-68 -33 -82 -47q-10 -10 -10 -24z" />
<glyph unicode="z" horiz-adv-x="808" d="M82 182q0 37 16 51q8 8 8 17q0 8 -8 16q-16 16 -16 47v6q2 35 22 58q14 16 17 26v3q0 10 -10 30q-10 18 -11 33q0 8 6 14q10 14 30 15.5t42.5 17.5t26.5 51q10 49 29.5 81t68.5 75q41 35 62 43q12 4 41 4q14 0 34 -2q80 -4 110 -30.5t68.5 -88t38.5 -82.5 q0 -18 16.5 -35.5t31 -30t20.5 -34.5q2 -6 2 -12q0 -18 -16 -39q-8 -14 -9 -25q0 -12 9 -20q16 -16 16 -41v-4q-2 -29 -22 -52q-14 -20 -15 -30q0 -2 2 -4q4 -8 19.5 -24.5t15.5 -33.5q0 -18 -22 -45q-16 -16 -65.5 -20t-242.5 -4q-283 0 -299 16t-16 53zM328 406 q0 -8 2 -17q6 -33 26 -43q23 -12 26 -49t7 -65.5t29 -28.5t29 28.5t7 65.5t25.5 49t26.5 37v8q0 21 -14 35t-78 18h-23q-43 0 -53 -10t-10 -28z" />
<glyph unicode="{" />
<glyph unicode="|" />
<glyph unicode="}" />
<glyph unicode="~" />
<glyph unicode="&#xa2;" />
<glyph unicode="&#xa3;" />
<glyph unicode="&#xa7;" />
<glyph unicode="&#xab;" />
<glyph unicode="&#xbb;" />
<glyph unicode="&#xbf;" />
<glyph unicode="&#xc0;" />
<glyph unicode="&#xc1;" />
<glyph unicode="&#xc2;" />
<glyph unicode="&#xc4;" />
<glyph unicode="&#xc7;" />
<glyph unicode="&#xc8;" />
<glyph unicode="&#xc9;" />
<glyph unicode="&#xca;" />
<glyph unicode="&#xcb;" />
<glyph unicode="&#xce;" />
<glyph unicode="&#xcf;" />
<glyph unicode="&#xd1;" />
<glyph unicode="&#xd3;" />
<glyph unicode="&#xd4;" />
<glyph unicode="&#xd6;" />
<glyph unicode="&#xd9;" />
<glyph unicode="&#xda;" />
<glyph unicode="&#xdb;" />
<glyph unicode="&#xdc;" />
<glyph unicode="&#xdf;" />
<glyph unicode="&#xe0;" />
<glyph unicode="&#xe1;" />
<glyph unicode="&#xe2;" />
<glyph unicode="&#xe4;" />
<glyph unicode="&#xe7;" />
<glyph unicode="&#xe8;" />
<glyph unicode="&#xe9;" />
<glyph unicode="&#xea;" />
<glyph unicode="&#xeb;" />
<glyph unicode="&#xee;" />
<glyph unicode="&#xef;" />
<glyph unicode="&#xf3;" />
<glyph unicode="&#xf4;" />
<glyph unicode="&#xf6;" />
<glyph unicode="&#xf9;" />
<glyph unicode="&#xfa;" />
<glyph unicode="&#xfb;" />
<glyph unicode="&#xfc;" />
<glyph unicode="&#x201c;" />
<glyph unicode="&#x201e;" />
<glyph unicode="&#x2022;" />
<glyph unicode="&#x20ac;" />
<glyph unicode="&#x25fc;" horiz-adv-x="839" d="M0 0v840h840v-840h-840z" />
</font>
</defs>
</svg>
