<?xml version="1.0" standalone="no"?>
<!DOCTYPE svg PUBLIC "-//W3C//DTD SVG 1.1//EN" "http://www.w3.org/Graphics/SVG/1.1/DTD/svg11.dtd" >
<svg xmlns="http://www.w3.org/2000/svg">
<metadata></metadata>
<defs>
<font id="bariolbold" horiz-adv-x="1437" >
<font-face units-per-em="2048" ascent="1612" descent="-436" />
<missing-glyph horiz-adv-x="462" />
<glyph unicode="&#x2e;&#x2e;&#x2e;" horiz-adv-x="1482" d="M96 117q0 137 135 137q133 0 134 -137q-1 -133 -134 -133q-135 0 -135 133zM606 117q0 137 135 137q133 0 133 -137q0 -133 -133 -133q-135 0 -135 133zM1118 117q0 137 135 137q133 0 133 -137q0 -133 -133 -133q-135 0 -135 133z" />
<glyph unicode="&#xfb01;" horiz-adv-x="1075" d="M33 838q0 39 26.5 65.5t65.5 26.5h43v96q0 154 108.5 265.5t298.5 111.5q152 0 232 -47q55 -33 55 -92q0 -43 -30.5 -74t-73.5 -31q-20 0 -53 12q-76 27 -130 27q-84 0 -135 -44t-51 -112v-112h473q47 0 79 -33t32 -78v-725q0 -45 -32 -77.5t-79 -32.5t-78.5 32.5 t-31.5 77.5v651h-363v-655q0 -45 -31.5 -75.5t-78.5 -30.5q-49 0 -80 29.5t-31 76.5v655h-43q-39 0 -65.5 27t-26.5 66z" />
<glyph unicode="&#xfb02;" horiz-adv-x="1136" d="M33 838q0 39 26.5 65.5t65.5 26.5h43v96q0 154 108.5 265.5t298.5 111.5q209 0 343 -82q55 -35 55 -96v-1000q0 -16 13 -26.5t26 -10.5q43 0 72.5 -29.5t29.5 -72.5t-29.5 -72.5t-72.5 -29.5q-121 0 -190.5 67.5t-69.5 194.5v499h-363v-655q0 -45 -31.5 -75.5 t-78.5 -30.5q-49 0 -80 29.5t-31 76.5v655h-43q-39 0 -65.5 27t-26.5 66zM389 930h363v237q-84 31 -177 31q-84 0 -135 -44t-51 -112v-112z" />
<glyph unicode="&#xfb03;" horiz-adv-x="1703" d="M33 838q0 39 26.5 65.5t65.5 26.5h43v110q0 154 101.5 258.5t289.5 104.5q39 0 67.5 -27.5t28.5 -68.5t-28.5 -69t-67.5 -28q-82 0 -126 -42t-44 -111v-127h408v96q0 154 108.5 265.5t298.5 111.5q152 0 232 -47q55 -33 55 -92q0 -43 -30.5 -74t-74.5 -31q-18 0 -53 12 q-76 27 -129 27q-84 0 -135 -44t-51 -112v-112h473q45 0 78 -33t33 -78v-725q0 -45 -33 -77.5t-78 -32.5t-78 32.5t-33 77.5v651h-362v-655q0 -45 -32 -75.5t-79 -30.5q-49 0 -79.5 29.5t-30.5 76.5v655h-408v-655q0 -45 -31.5 -75.5t-78.5 -30.5q-49 0 -80 29.5t-31 76.5 v655h-43q-39 0 -65.5 27t-26.5 66z" />
<glyph unicode="&#xfb04;" horiz-adv-x="1763" d="M33 838q0 39 26.5 65.5t65.5 26.5h43v110q0 154 101.5 258.5t289.5 104.5q39 0 67.5 -27.5t28.5 -68.5t-28.5 -69t-67.5 -28q-82 0 -126 -42t-44 -111v-127h406v96q0 154 108.5 265.5t298.5 111.5q209 0 342 -82q55 -35 55 -96v-1000q0 -16 13.5 -26.5t25.5 -10.5 q43 0 73 -29.5t30 -72.5t-30 -72.5t-73 -29.5q-121 0 -190.5 67.5t-69.5 194.5v499h-362v-655q0 -45 -32 -75.5t-79 -30.5q-49 0 -79.5 29.5t-30.5 76.5v655h-406v-655q0 -45 -31.5 -75.5t-78.5 -30.5q-49 0 -80 29.5t-31 76.5v655h-43q-39 0 -65.5 27t-26.5 66zM1016 930 h362v237q-84 31 -176 31q-84 0 -135 -44t-51 -112v-112z" />
<glyph horiz-adv-x="0" />
<glyph unicode="&#xd;" horiz-adv-x="681" />
<glyph unicode=" "  horiz-adv-x="462" />
<glyph unicode="&#x09;" horiz-adv-x="462" />
<glyph unicode="&#xa0;" horiz-adv-x="462" />
<glyph unicode="!" horiz-adv-x="434" d="M84 117q0 137 135 137q133 0 133 -137q0 -133 -133 -133q-135 0 -135 133zM92 1280q-6 115 127 115q131 0 125 -115l-39 -815q-4 -78 -86 -78q-86 0 -90 78z" />
<glyph unicode="&#x22;" horiz-adv-x="598" d="M74 1311q-2 41 23.5 62.5t74.5 21.5t73.5 -21.5t22.5 -62.5l-18 -328q-4 -74 -78 -74q-76 0 -80 74zM330 1311q-2 41 23.5 62.5t74.5 21.5t73.5 -21.5t22.5 -62.5l-18 -328q-4 -74 -78 -74q-76 0 -80 74z" />
<glyph unicode="#" horiz-adv-x="1169" d="M94 481q0 39 26.5 65.5t65.5 26.5h95l30 195h-75q-39 0 -66 26.5t-27 65.5t27 65.5t66 26.5h104l49 303q6 35 34 57.5t64 22.5q41 0 70 -27.5t29 -66.5q0 -8 -2 -24l-43 -265h164l49 303q6 35 33.5 57.5t64.5 22.5q41 0 69.5 -27.5t28.5 -66.5q0 -8 -2 -24l-43 -265h78 q39 0 65.5 -26.5t26.5 -65.5t-26.5 -65.5t-65.5 -26.5h-106l-33 -195h90q39 0 65.5 -26.5t26.5 -65.5t-26.5 -65.5t-65.5 -26.5h-119l-53 -332q-14 -80 -96 -80q-43 0 -71 28t-28 71q0 8 4 33l45 280h-165l-54 -332q-14 -80 -96 -80q-43 0 -70.5 28t-27.5 71q0 8 4 33 l45 280h-66q-39 0 -65.5 26.5t-26.5 65.5zM479 573h166l31 195h-164z" />
<glyph unicode="$" horiz-adv-x="1173" d="M59 279q0 45 32 77.5t77 32.5t90 -45q156 -156 336 -156q276 0 276 189q0 59 -41 103t-107.5 72t-145 52.5t-158.5 57t-146.5 76.5t-107.5 119t-41 175q0 145 94 246.5t283 122.5v117q0 39 27.5 67.5t66.5 28.5q41 0 68.5 -28.5t27.5 -67.5v-119q262 -33 369 -185 q20 -31 20 -65q0 -45 -32.5 -77t-77.5 -32q-39 0 -88 45q-113 109 -287 109q-119 0 -176.5 -47t-57.5 -115q0 -61 55.5 -106t138.5 -68.5t180 -61.5t180 -81t138.5 -130t55.5 -208q0 -170 -107.5 -274.5t-310.5 -125.5v-114q0 -39 -27.5 -67.5t-68.5 -28.5q-39 0 -66.5 28.5 t-27.5 67.5v114q-143 18 -256 86t-168 158q-16 27 -17 58z" />
<glyph unicode="%" horiz-adv-x="1564" d="M74 1073q0 334 313 334q317 0 318 -334q0 -152 -76 -243t-242 -91q-164 0 -238.5 91.5t-74.5 242.5zM258 1073q0 -162 129 -162q131 0 131 162t-131 162q-129 0 -129 -162zM358 78q0 23 11 43l643 1222q21 52 84 52q41 0 69.5 -28t28.5 -67q0 -20 -10 -40l-643 -1227 q-29 -49 -86 -49q-41 0 -69 26.5t-28 67.5zM860 307q1 334 314 334q317 0 317 -334q0 -152 -76 -243t-241 -91q-164 0 -239 91.5t-75 242.5zM1045 307q0 -162 129 -162q131 0 131 162t-131 162q-129 0 -129 -162z" />
<glyph unicode="&#x26;" horiz-adv-x="1298" d="M68 369q0 201 204 358q-86 176 -86 326q0 147 89.5 250.5t243 103.5t233 -93t79.5 -227q0 -207 -276 -417q129 -166 301 -283q16 25 51 113q29 82 107 82q45 0 76.5 -33t31.5 -76q0 -20 -10 -55q-27 -84 -78 -154q27 -18 150 -80q63 -31 63 -96q0 -43 -30.5 -73.5 t-73.5 -30.5q-78 0 -252 116q-150 -129 -379 -129q-197 0 -320.5 105.5t-123.5 292.5zM293 369q0 -88 62.5 -142.5t156.5 -54.5q106 0 199 61q-197 139 -326 318q-92 -80 -92 -182zM408 1053q0 -102 43 -205q160 113 159 239q0 51 -23.5 85t-70.5 34q-108 1 -108 -153z" />
<glyph unicode="'" horiz-adv-x="342" d="M74 1311q-2 41 23.5 62.5t74.5 21.5t73.5 -21.5t22.5 -62.5l-18 -328q-4 -74 -78 -74q-76 0 -80 74z" />
<glyph unicode="(" horiz-adv-x="645" d="M82 606.5q0 405.5 80 609t276 285.5q25 10 45 10q41 0 71 -29.5t30 -70.5q0 -66 -60 -92q-61 -27 -102 -77t-63.5 -105.5t-35 -149.5t-14.5 -171t-2 -210t2 -210t14.5 -171t35 -149.5t63.5 -105.5t102 -76q59 -27 60 -93q0 -41 -30 -70.5t-71 -29.5q-20 0 -45 10 q-197 82 -276.5 286t-79.5 609.5z" />
<glyph unicode=")" horiz-adv-x="645" d="M61 -199q0 66 60 93q61 27 102 76.5t63.5 105t35 149.5t14.5 171t2 210t-2 210t-14.5 171t-35 149.5t-63.5 105.5t-102 77q-59 27 -60 92q0 41 30 70.5t71 29.5q20 0 45 -10q197 -82 276.5 -285.5t79.5 -609t-80 -609.5t-276 -286q-25 -10 -45 -10q-41 0 -71 29.5 t-30 70.5z" />
<glyph unicode="*" horiz-adv-x="757" d="M63 1229q16 61 74 43l182 -53l-6 182q-2 33 14.5 45t49.5 12t49 -12t14 -45l-6 -182l182 53q57 18 74 -43q16 -68 -41 -80l-180 -31l117 -160q35 -47 -17 -81q-53 -37 -86 14l-106 168l-107 -168q-33 -51 -86 -14q-51 35 -16 81l117 160l-181 31q-57 12 -41 80z" />
<glyph unicode="+" horiz-adv-x="929" d="M0 446.5q0 38.5 27.5 66.5t66.5 28h273v272q0 39 29.5 68.5t68.5 29.5t68.5 -29.5t29.5 -68.5v-272h273q39 0 66.5 -28t27.5 -66.5t-28 -66.5t-66 -28h-273v-270q0 -41 -29.5 -69.5t-68.5 -28.5t-68.5 28.5t-29.5 69.5v270h-273q-39 0 -66.5 28t-27.5 66.5z" />
<glyph unicode="," horiz-adv-x="460" d="M72 -305q0 14 12 31q31 39 45 58t27.5 56t13.5 76q0 41 -37 101.5t-37 99.5q0 137 135 137q133 0 134 -137q0 -145 -64.5 -267t-150.5 -188q-16 -12 -33 -12q-18 0 -31.5 13t-13.5 32z" />
<glyph unicode="-" horiz-adv-x="774" d="M88 516q0 39 27.5 66.5t66.5 27.5h410q39 0 66.5 -27.5t27.5 -66.5t-27.5 -66.5t-66.5 -27.5h-410q-39 0 -66.5 27.5t-27.5 66.5z" />
<glyph unicode="." horiz-adv-x="460" d="M96 117q0 137 135 137q133 0 134 -137q-1 -133 -134 -133q-135 0 -135 133z" />
<glyph unicode="/" horiz-adv-x="864" d="M53 -90q0 20 8 43l535 1513q27 72 104 72q45 0 78 -31.5t33 -79.5q0 -20 -8 -43l-535 -1513q-27 -72 -104 -72q-45 0 -78 33t-33 78z" />
<glyph unicode="0" horiz-adv-x="1251" d="M90 690.5q0 368.5 130.5 542.5t406.5 174q274 0 404 -175t130 -542q0 -369 -130 -544t-404 -175q-276 0 -406.5 175.5t-130.5 544zM324 690q0 -270 72.5 -391t230 -121t229.5 121t72 391q0 268 -72 390t-229.5 122t-230 -123t-72.5 -389z" />
<glyph unicode="1" horiz-adv-x="724" d="M49 1085q0 63 49 95l295 190q39 25 72 25q47 0 82 -35t35 -82v-1178q0 -47 -35 -81.5t-82 -34.5t-82 34.5t-35 81.5v975l-119 -80q-29 -23 -67 -22q-47 0 -80 33.5t-33 78.5z" />
<glyph unicode="2" horiz-adv-x="1132" d="M80 104q0 125 75.5 226.5t183 172t216.5 137.5t184.5 155t75.5 192q0 90 -63.5 152.5t-176.5 62.5q-164 0 -233 -147q-35 -66 -102 -66q-47 0 -79 32t-32 79q0 24 10 47q51 119 163 189.5t273 70.5q221 0 347.5 -114.5t126.5 -305.5q0 -102 -52.5 -195.5t-132.5 -159 t-171 -129t-171 -109.5t-132 -95t-52 -90h629q43 0 73.5 -31t30.5 -74t-30.5 -73.5t-73.5 -30.5h-783q-43 0 -73.5 30.5t-30.5 73.5z" />
<glyph unicode="3" horiz-adv-x="1153" d="M66 262q0 45 31.5 77t76.5 32q51 0 98 -54q121 -139 281 -139q135 0 202.5 62.5t67.5 175.5q0 246 -243 246h-127q-47 0 -79 30.5t-32 75.5q0 39 27 72l288 329h-411q-43 0 -74 31t-31 74t31 73.5t74 30.5h655q43 0 74 -30.5t31 -73.5q0 -41 -27 -70l-299 -338 q201 -23 289 -145.5t88 -304.5q0 -213 -128 -328t-376 -115q-152 0 -275.5 63.5t-193.5 164.5q-18 29 -18 61z" />
<glyph unicode="4" horiz-adv-x="1148" d="M63 399q0 31 19 58l625 882q39 53 98 54q47 0 82 -35t35 -82v-772h71q43 0 74 -31t31 -74t-31 -73.5t-74 -30.5h-71v-195q0 -47 -35 -81.5t-82 -34.5t-82 34.5t-35 81.5v195h-520q-43 0 -74 30.5t-31 73.5zM365 504h323v471z" />
<glyph unicode="5" horiz-adv-x="1179" d="M57 301q0 45 32 77t77 32q57 0 96 -58q61 -92 131 -134t176 -42q125 0 200 73t75 212t-75 210.5t-200 71.5q-147 0 -260 -81q-59 -41 -98 -41q-45 0 -78 31.5t-33 76.5q0 14 4 35l103 530q6 33 33.5 58.5t68.5 25.5h615q43 0 73.5 -30.5t30.5 -73.5t-30.5 -74t-73.5 -31 h-535l-53 -268q98 47 233 47q236 0 372 -121.5t136 -365.5q0 -246 -136 -368t-372 -122q-176 0 -306 82t-191 195q-14 27 -15 53z" />
<glyph unicode="6" horiz-adv-x="1204" d="M84 659q0 748 549 748q121 0 214 -34t142 -83q35 -35 35 -78t-31.5 -74.5t-74.5 -31.5q-33 0 -66 22q-109 74 -219 74q-154 0 -234 -105.5t-80 -301.5q119 123 314 123q221 0 354 -122t133 -345q0 -242 -140 -361t-378 -119q-262 0 -390 185.5t-128 502.5zM324 539 q0 -170 72.5 -265.5t205.5 -95.5q285 0 285 273q0 127 -76 193.5t-195 66.5q-195 0 -292 -172z" />
<glyph unicode="7" horiz-adv-x="1038" d="M37 1274q0 43 30.5 73.5t73.5 30.5h750q43 0 73.5 -30.5t30.5 -73.5q0 -117 -57 -229.5t-140 -210t-166 -201t-140.5 -242.5t-57.5 -297q0 -47 -33.5 -78.5t-81 -31.5t-81 31.5t-33.5 78.5q0 156 57 304.5t139 259t164 204.5t139.5 174t57.5 133h-621q-43 0 -73.5 31 t-30.5 74z" />
<glyph unicode="8" horiz-adv-x="1177" d="M72 412q0 231 231 342q-72 39 -119 110.5t-47 163.5q0 182 118 280.5t333 98.5t332.5 -98.5t117.5 -280.5q0 -92 -47 -163.5t-119 -110.5q231 -111 232 -342q0 -217 -133 -329t-383 -112t-383 112t-133 329zM305 411.5q0 -114.5 77 -174t206 -59.5t205.5 59.5t76.5 174 t-74.5 174t-207.5 59.5t-208 -59.5t-75 -174zM367 1028q0 -88 58 -133t162.5 -45t163 45t58.5 133q0 84 -58.5 129t-163 45t-162.5 -45t-58 -129z" />
<glyph unicode="9" horiz-adv-x="1204" d="M84 928q0 242 140.5 360.5t377.5 118.5q262 0 390 -185.5t128 -502.5q0 -748 -549 -748q-121 0 -214 34t-142 83q-35 35 -35 78t32 74.5t75 31.5q33 0 65 -22q109 -74 219 -74q154 0 234 105.5t80 302.5q-119 -123 -314 -123q-221 0 -354 122t-133 345zM317 928 q0 -127 76 -193.5t195 -66.5q195 0 293 172q0 170 -73 265t-206 95q-285 0 -285 -272z" />
<glyph unicode=":" horiz-adv-x="460" d="M96 117q0 137 135 137q133 0 134 -137q-1 -133 -134 -133q-135 0 -135 133zM96 797q0 137 135 137q133 0 134 -137q-1 -133 -134 -133q-135 0 -135 133z" />
<glyph unicode=";" horiz-adv-x="460" d="M72 -305q0 14 12 31q31 39 45 58t27.5 56t13.5 76q0 41 -37 101.5t-37 99.5q0 137 135 137q133 0 134 -137q0 -145 -64.5 -267t-150.5 -188q-16 -12 -33 -12q-18 0 -31.5 13t-13.5 32zM96 797q0 137 135 137q133 0 134 -137q-1 -133 -134 -133q-135 0 -135 133z" />
<glyph unicode="&#x3c;" horiz-adv-x="743" d="M0 481q0 45 45 82l543 412q25 18 57 18q39 0 68.5 -29.5t29.5 -68.5q0 -51 -41 -80l-452 -334l452 -334q41 -29 41 -79q0 -39 -29.5 -69t-68.5 -30q-33 0 -57 19l-543 411q-45 37 -45 82z" />
<glyph unicode="=" horiz-adv-x="929" d="M0 268q0 39 27.5 66.5t66.5 27.5h742q39 0 66.5 -27.5t27.5 -66.5t-28 -66.5t-66 -27.5h-742q-39 0 -66.5 27.5t-27.5 66.5zM0 623q0 39 27.5 66.5t66.5 27.5h742q39 0 66.5 -27.5t27.5 -66.5t-28 -67t-66 -28h-742q-39 0 -66.5 28t-27.5 67z" />
<glyph unicode="&#x3e;" horiz-adv-x="743" d="M0 68q0 51 41 79l453 334l-453 334q-41 29 -41 80q0 39 28.5 68.5t69.5 29.5q33 0 58 -18l542 -412q45 -37 45 -82t-45 -82l-542 -411q-25 -18 -58 -19q-41 0 -69.5 30t-28.5 69z" />
<glyph unicode="?" horiz-adv-x="927" d="M41 1034q0 176 110.5 274.5t307.5 98.5q203 0 315.5 -93t112.5 -265q0 -113 -61.5 -196t-134.5 -121t-134 -80t-61 -81q0 -20 20 -49q18 -27 19 -61q0 -49 -35 -80t-76 -31q-47 0 -80 33q-76 74 -76 174q0 86 62.5 154.5t136.5 106.5t136.5 98.5t62.5 132.5 q0 76 -54.5 116.5t-152.5 40.5q-88 0 -140.5 -44t-52.5 -128q0 -47 -32.5 -79.5t-80 -32.5t-80 32.5t-32.5 79.5zM283 117q0 137 135 137q133 0 133 -137q0 -133 -133 -133q-135 0 -135 133z" />
<glyph unicode="@" horiz-adv-x="1648" d="M80 365q0 358 196.5 544.5t548.5 186.5q332 0 536 -179.5t204 -510.5q0 -74 -18.5 -142.5t-57.5 -133t-112.5 -104.5t-172.5 -40q-152 0 -209 114q-90 -115 -245 -114q-117 0 -189 66.5t-72 174.5q0 106 75 165t186 59h211v28q0 55 -38 88t-106 33q-84 0 -164 -59 q-23 -16 -49 -17q-31 0 -52.5 21.5t-21.5 52.5q0 35 19 53q96 104 268 105q147 0 231.5 -72t84.5 -197v-249q0 -39 24.5 -59.5t61.5 -20.5q158 0 157 248q0 254 -148.5 386t-402.5 132q-262 0 -409.5 -137.5t-147.5 -421.5q0 -289 148.5 -435.5t408.5 -146.5q256 0 418 96 q23 12 45 12q37 0 62.5 -25.5t25.5 -62.5q0 -53 -45 -77q-203 -115 -506 -115q-350 0 -547.5 195.5t-197.5 558.5zM664 227q0 -96 131 -96q68 0 117 39t49 104v43h-189q-109 0 -108 -90z" />
<glyph unicode="A" horiz-adv-x="1277" d="M39 100q0 25 8 43l483 1178q31 74 109 74t109 -74l483 -1178q8 -18 8 -43q0 -47 -35 -81.5t-82 -34.5q-78 0 -110 77l-125 297h-496l-125 -297q-33 -77 -108 -77h-2q-47 0 -82 34.5t-35 81.5zM471 575h336l-168 431z" />
<glyph unicode="B" horiz-adv-x="1163" d="M123 119v1141q0 49 35 83.5t84 34.5h368q217 0 318.5 -100t101.5 -256q0 -98 -43 -172t-108 -107q213 -82 213 -329q0 -193 -114 -303.5t-331 -110.5h-405q-49 0 -84 35t-35 84zM360 213h287q203 0 203 201q0 96 -51 148t-152 52h-287v-401zM360 815h250q92 0 137.5 47 t45.5 129q0 174 -183 174h-250v-350z" />
<glyph unicode="C" horiz-adv-x="1310" d="M70 688q0 358 164.5 538.5t476.5 180.5q342 0 493 -221q23 -35 23 -68q0 -45 -33 -76.5t-78 -31.5t-84 41q-68 74 -141.5 108.5t-179.5 34.5q-203 0 -299.5 -125t-96.5 -381q0 -266 94.5 -385t301.5 -119q113 0 185.5 30t145.5 105q45 45 88 46q45 0 78 -33t33 -78 q0 -35 -20 -61q-76 -100 -212 -161t-298 -61q-641 0 -641 717z" />
<glyph unicode="D" horiz-adv-x="1251" d="M123 119v1141q0 49 35 83.5t84 34.5h276q322 0 494 -162.5t172 -527t-172 -526.5t-494 -162h-276q-49 0 -84 35t-35 84zM360 213h158q207 0 313.5 109.5t106.5 365.5t-106.5 366.5t-313.5 110.5h-158v-952z" />
<glyph unicode="E" horiz-adv-x="1071" d="M123 119v1141q0 49 35 83.5t84 34.5h639q45 0 75.5 -30.5t30.5 -75.5t-30.5 -76t-75.5 -31h-521v-366h388q43 0 73.5 -31t30.5 -74t-30.5 -73.5t-73.5 -30.5h-388v-377h543q45 0 76 -30.5t31 -76t-31 -76t-76 -30.5h-661q-49 0 -84 35t-35 84z" />
<glyph unicode="F" horiz-adv-x="1071" d="M123 102v1158q0 49 35 83.5t84 34.5h639q45 0 75.5 -30.5t30.5 -75.5t-30.5 -76t-75.5 -31h-521v-379h388q43 0 73.5 -30.5t30.5 -73.5t-30.5 -73.5t-73.5 -30.5h-388v-476q0 -49 -34.5 -83.5t-83.5 -34.5t-84 34.5t-35 83.5z" />
<glyph unicode="G" horiz-adv-x="1382" d="M70 688q0 358 164.5 538.5t476.5 180.5q342 0 493 -221q23 -35 23 -68q0 -45 -33 -76.5t-78 -31.5t-84 41q-68 74 -141.5 108.5t-179.5 34.5q-203 0 -299.5 -125t-96.5 -381q0 -266 94.5 -385t301.5 -119q223 0 338 117v229h-279q-43 0 -73.5 31t-30.5 74t30.5 73.5 t73.5 30.5h397q43 0 78 -32.5t35 -75.5v-328q0 -66 -35 -108q-74 -98 -222.5 -161t-311.5 -63q-641 0 -641 717z" />
<glyph unicode="H" horiz-adv-x="1306" d="M123 102v1174q0 49 35 84t84 35t83.5 -35t34.5 -84v-463h586v463q0 49 35 84t84 35t84 -35t35 -84v-1174q0 -49 -35 -83.5t-84 -34.5t-84 34.5t-35 83.5v494h-586v-494q0 -49 -34.5 -83.5t-83.5 -34.5t-84 34.5t-35 83.5z" />
<glyph unicode="I" horiz-adv-x="483" d="M123 102v1174q0 49 35 84t84 35t83.5 -35t34.5 -84v-1174q0 -49 -34.5 -83.5t-83.5 -34.5t-84 34.5t-35 83.5z" />
<glyph unicode="J" horiz-adv-x="882" d="M31 123q0 45 30.5 75.5t75.5 30.5q20 0 47 -10q78 -31 148 -31q190 0 190 242v846q0 49 35 84t84 35t84 -35t35 -84v-846q0 -211 -102.5 -334t-325.5 -123q-154 0 -244 56q-57 31 -57 94z" />
<glyph unicode="K" horiz-adv-x="1138" d="M123 102v1174q0 49 35 84t84 35t83.5 -35t34.5 -84v-469l492 549q37 39 86 39q47 0 81 -34t34 -81q0 -43 -31 -78l-385 -418l453 -616q23 -29 22 -68q0 -47 -35 -81.5t-82 -34.5q-59 0 -96 51l-422 583l-117 -122v-394q0 -49 -34.5 -83.5t-83.5 -34.5t-84 34.5t-35 83.5z " />
<glyph unicode="L" horiz-adv-x="1005" d="M123 115v1161q0 49 35 84t84 35t83.5 -35t34.5 -84v-1055h486q49 0 82 -31.5t33 -79t-32 -79t-83 -31.5h-606q-51 0 -84 33t-33 82z" />
<glyph unicode="M" horiz-adv-x="1546" d="M113 100v1178q0 47 34.5 82t81.5 35q68 0 105 -66l434 -778l434 778q37 66 105 66q47 0 81.5 -35t34.5 -82v-1178q0 -47 -34.5 -81.5t-81.5 -34.5t-82 34.5t-35 81.5v746l-322 -572q-32 -57 -100 -57t-100 57l-322 572v-746q0 -47 -35 -81.5t-82 -34.5t-81.5 34.5 t-34.5 81.5z" />
<glyph unicode="N" horiz-adv-x="1275" d="M113 100v1178q0 47 34.5 82t81.5 35q61 0 95 -49l606 -879v811q0 47 34.5 82t82 35t82 -35t34.5 -82v-1178q0 -47 -34.5 -81.5t-81.5 -34.5q-61 0 -97 51l-604 872v-807q0 -47 -35 -81.5t-82 -34.5t-81.5 34.5t-34.5 81.5z" />
<glyph unicode="O" d="M70 688q0 358 166.5 538.5t482 180.5t482.5 -180t167 -539q0 -354 -168 -535.5t-481 -181.5t-481 181.5t-168 535.5zM315 688q0 -504 403.5 -504t403.5 504q0 506 -403.5 506t-403.5 -506z" />
<glyph unicode="P" horiz-adv-x="1130" d="M123 102v1158q0 49 35 83.5t84 34.5h391q190 0 310 -106.5t120 -313.5q0 -205 -120 -313t-310 -108h-273v-435q0 -49 -34.5 -83.5t-83.5 -34.5t-84 34.5t-35 83.5zM360 750h254q96 0 149.5 54t53.5 154.5t-54.5 153.5t-148.5 53h-254v-415z" />
<glyph unicode="Q" d="M70 688q0 358 166.5 538.5t482 180.5t482.5 -180t167 -539q0 -434 -262 -608q49 -6 101.5 -31.5t74.5 -56.5q27 -37 27 -74q0 -47 -34 -82t-83 -35q-47 0 -82 35q-78 76 -153.5 104.5t-237.5 30.5q-313 0 -481 181.5t-168 535.5zM315 688q0 -504 403.5 -504t403.5 504 q0 506 -403.5 506t-403.5 -506z" />
<glyph unicode="R" horiz-adv-x="1146" d="M123 102v1158q0 49 35 83.5t84 34.5h391q201 0 316.5 -122.5t115.5 -305.5q0 -152 -86 -270.5t-229 -136.5l303 -369q25 -33 24 -72q0 -49 -34.5 -83.5t-84.5 -34.5q-59 0 -92 43l-372 501h-134v-426q0 -49 -34.5 -83.5t-83.5 -34.5t-84 34.5t-35 83.5zM360 737h277 q90 0 136 62.5t46 150.5q0 90 -47 152.5t-141 62.5h-271v-428z" />
<glyph unicode="S" horiz-adv-x="1173" d="M59 279q0 45 32 77.5t77 32.5t90 -45q156 -156 336 -156q276 0 276 189q0 59 -41 103t-107.5 72t-145 52.5t-158.5 57t-146.5 76.5t-107.5 119t-41 175q0 164 119.5 269.5t351.5 105.5q154 0 278.5 -52t186.5 -141q20 -31 20 -65q0 -45 -32.5 -77t-77.5 -32q-39 0 -88 45 q-113 109 -287 109q-119 0 -176.5 -47t-57.5 -115q0 -61 55.5 -106t138.5 -68.5t180 -61.5t180 -81t138.5 -130t55.5 -208q0 -190 -132 -298t-382 -108q-174 0 -314.5 73t-203.5 177q-16 27 -17 58z" />
<glyph unicode="T" horiz-adv-x="1159" d="M43 1274q0 43 30.5 73.5t73.5 30.5h865q43 0 73.5 -30.5t30.5 -73.5t-30.5 -74t-73.5 -31h-314v-1067q0 -49 -34.5 -83.5t-84 -34.5t-84 34.5t-34.5 83.5v1067h-314q-43 0 -73.5 31t-30.5 74z" />
<glyph unicode="U" horiz-adv-x="1267" d="M123 451v825q0 49 35 84t84 35t83.5 -35t34.5 -84v-825q0 -270 279 -270h1q278 0 278 270v825q0 49 34.5 84t83.5 35t84 -35t35 -84v-825q0 -96 -23.5 -175t-78 -151t-161 -113t-253.5 -41t-253.5 41t-161 113t-78 150.5t-23.5 175.5z" />
<glyph unicode="V" horiz-adv-x="1245" d="M39 1276q0 49 35 84t84 35q82 0 108 -70l357 -944l356 944q29 70 108 70q49 0 84 -35t35 -84q0 -27 -8 -45l-465 -1172q-31 -75 -110.5 -75t-110.5 75l-465 1172q-8 18 -8 45z" />
<glyph unicode="W" horiz-adv-x="1716" d="M39 1276q0 49 35 84t84 35q45 0 74.5 -26t37.5 -56l240 -860l233 856q10 39 43 62.5t72 23.5t72 -23.5t43 -62.5l233 -856l240 860q8 31 37.5 56.5t75.5 25.5q49 0 83.5 -35t34.5 -84q0 -18 -6 -37l-350 -1173q-10 -35 -42 -58.5t-71 -23.5q-41 0 -72.5 24.5t-41.5 63.5 l-236 839l-235 -839q-10 -39 -42 -63.5t-73 -24.5q-39 0 -70.5 23.5t-42.5 58.5l-350 1173q-6 18 -6 37z" />
<glyph unicode="X" horiz-adv-x="1110" d="M23 102q0 39 20 66l383 537l-356 501q-23 33 -23 70q0 49 35 84t84 35q63 0 96 -49l293 -437l293 437q35 49 96 49q49 0 84 -35t35 -84q0 -37 -23 -70l-356 -501l383 -537q20 -27 20 -66q0 -49 -34.5 -83.5t-83.5 -34.5q-62 0 -99 53l-315 467l-315 -467q-37 -53 -99 -53 q-49 0 -83.5 34.5t-34.5 83.5z" />
<glyph unicode="Y" horiz-adv-x="1134" d="M39 1276q0 49 35 84t84 35q65 -1 100 -56l309 -485l310 485q35 55 100 56q49 0 84 -35t35 -84q0 -39 -19 -64l-391 -583v-527q0 -49 -35 -83.5t-84 -34.5t-83.5 34.5t-34.5 83.5v527l-392 583q-18 25 -18 64z" />
<glyph unicode="Z" horiz-adv-x="1107" d="M31 106q0 37 20 64l688 999h-563q-43 0 -73.5 31t-30.5 74t30.5 73.5t73.5 30.5h774q43 0 74 -30.5t31 -73.5q0 -33 -19 -60l-686 -1001h625q45 0 75.5 -30.5t30.5 -76t-30.5 -76t-75.5 -30.5h-838q-45 0 -75.5 30.5t-30.5 75.5z" />
<glyph unicode="[" horiz-adv-x="579" d="M123 -193v1598q0 45 31.5 75.5t81.5 30.5h192q39 0 67.5 -28.5t28.5 -67.5t-28.5 -67.5t-67.5 -28.5h-84v-1425h84q39 0 67.5 -29t28.5 -68t-28.5 -67.5t-67.5 -28.5h-192q-49 0 -81 29.5t-32 76.5z" />
<glyph unicode="\" horiz-adv-x="864" d="M53 1427q0 47 33 79t78 32q77 0 104 -72l535 -1513q8 -23 8 -43q0 -45 -33 -78t-78 -33q-78 0 -104 72l-535 1513q-8 23 -8 43z" />
<glyph unicode="]" horiz-adv-x="579" d="M55 -203q0 39 28 68t69 29h84v1425h-84q-41 0 -69 28.5t-28 67.5t28 67.5t69 28.5h192q49 0 81 -30.5t32 -75.5v-1598q0 -47 -32 -76.5t-81 -29.5h-192q-41 0 -69 28.5t-28 67.5z" />
<glyph unicode="^" horiz-adv-x="995" d="M82 768q0 27 12 47l324 555q29 45 80 45t80 -45l323 -555q12 -20 12 -47q0 -39 -27.5 -66.5t-66.5 -27.5q-57 0 -82 47l-239 432l-240 -432q-25 -47 -82 -47q-39 0 -66.5 27.5t-27.5 66.5z" />
<glyph unicode="_" horiz-adv-x="862" d="M-27 -158q0 39 28 67t67 28h729q39 0 66.5 -28t27.5 -67t-27.5 -66.5t-66.5 -27.5h-729q-39 0 -67 27.5t-28 66.5z" />
<glyph unicode="`" horiz-adv-x="786" d="M220 1294.5q1 34.5 34 65.5q31 31 66.5 33t56.5 -27l174 -221q41 -45 -10 -92q-45 -43 -95 0l-200 184q-27 23 -26 57.5z" />
<glyph unicode="a" horiz-adv-x="966" d="M55 283q0 137 95.5 212.5t236.5 75.5h268v37q0 70 -49 112t-137 42q-96 0 -205 -78q-29 -20 -61 -20q-39 0 -68 28.5t-29 67.5t27 67q119 131 336 131q190 0 297.5 -90t107.5 -252v-524q0 -45 -31.5 -76.5t-76.5 -31.5t-77 31.5t-32 76.5q-74 -119 -268 -119 q-150 0 -242 85t-92 225zM276 283q0 -125 170 -125q86 0 147.5 51t61.5 133v57h-239q-139 0 -140 -116z" />
<glyph unicode="b" horiz-adv-x="1026" d="M102 383v965q0 45 33 77.5t78 32.5t78 -32.5t33 -77.5v-471q82 81 225 81q199 0 307.5 -123.5t108.5 -369.5t-114 -369t-325 -123q-193 0 -308.5 105.5t-115.5 304.5zM324 383q0 -104 56 -162.5t146 -58.5q219 0 219 303q0 150 -56 227.5t-163 77.5q-55 0 -105 -26.5 t-73 -51.5l-24 -26v-283z" />
<glyph unicode="c" horiz-adv-x="923" d="M59 467q0 246 116 368.5t329 122.5q125 0 210 -45t124 -96q23 -31 22 -63q0 -41 -28.5 -70t-69.5 -29q-45 0 -76 35q-74 80 -182 80q-106 0 -163.5 -79t-57.5 -224q0 -147 57 -226t164 -79q92 0 203 82q29 20 61 20q41 0 69.5 -28.5t28.5 -69.5q0 -43 -35 -76 q-127 -117 -327 -117q-213 0 -329 124t-116 370z" />
<glyph unicode="d" horiz-adv-x="1013" d="M59 465q0 246 108.5 369.5t307.5 123.5q143 0 225 -81v471q0 45 33 77.5t78 32.5t78 -32.5t33 -77.5v-965q0 -199 -116 -304.5t-308 -105.5q-211 0 -325 123t-114 369zM279 465q0 -303 219 -303q90 0 146 58.5t56 162.5v283q-8 12 -25.5 29.5t-69.5 46t-107 28.5 q-106 0 -162.5 -78t-56.5 -227z" />
<glyph unicode="e" horiz-adv-x="964" d="M61 469q0 233 117 361t326 128q123 0 209 -42t127 -110.5t57 -130t16 -124.5q0 -39 -2 -59.5t-13 -49t-37.5 -42t-72.5 -13.5h-505q0 -106 66.5 -160.5t172.5 -54.5q109 0 203 64q34 22 63 22h3q41 0 68.5 -28.5t27.5 -67.5q0 -45 -35 -76q-119 -113 -330 -113 q-219 0 -340 123t-121 373zM289 571h405q0 82 -48 140.5t-142 58.5q-92 0 -149.5 -51t-65.5 -148z" />
<glyph unicode="f" horiz-adv-x="659" d="M33 838q0 39 26.5 65.5t65.5 26.5h43v110q0 154 101.5 258.5t289.5 104.5q39 0 67.5 -27.5t28.5 -68.5t-28.5 -69t-67.5 -28q-82 0 -126 -42t-44 -111v-127h137q39 0 65.5 -26.5t26.5 -65.5t-26.5 -66t-65.5 -27h-137v-655q0 -45 -31.5 -75.5t-78.5 -30.5q-49 0 -80 29.5 t-31 76.5v655h-43q-39 0 -65.5 27t-26.5 66z" />
<glyph unicode="g" horiz-adv-x="1017" d="M51 -109q0 123 123 201q-96 59 -96 164q0 82 69 139q-66 86 -65 213q0 164 106.5 257t294.5 93q111 0 197 -34q74 94 205 94q39 0 65.5 -26.5t26.5 -65.5t-26.5 -65.5t-65.5 -26.5q-41 0 -62 -19q62 -82 62 -207q0 -164 -106.5 -257t-295.5 -93q-106 0 -192 33 q-18 -16 -19 -43q0 -70 121 -70h191q172 0 276.5 -67.5t104.5 -212.5q0 -152 -126 -231t-331 -79q-90 0 -167 14.5t-144.5 47.5t-106.5 94t-39 147zM272 -109q0 -114 234 -114h4q100 0 166.5 31t66.5 90q0 47 -44 73.5t-115 26.5h-193q-55 -12 -87 -42t-32 -65zM303 608.5 q0 -71.5 48 -118t132 -46.5t132.5 46.5t48.5 118t-48.5 117.5t-132.5 46t-132 -46t-48 -117.5z" />
<glyph unicode="h" horiz-adv-x="1021" d="M102 90v1258q0 45 33 77.5t78 32.5t78 -32.5t33 -77.5v-512q79 122 259 122h3q344 0 344 -356v-512q0 -45 -32 -75.5t-79 -30.5q-49 0 -79.5 29.5t-30.5 76.5v471q0 197 -181 197q-205 0 -204 -211v-457q0 -45 -32 -75.5t-79 -30.5t-79 30.5t-32 75.5z" />
<glyph unicode="i" horiz-adv-x="436" d="M92 1186q0 135 131 135q133 0 133 -135q0 -61 -34.5 -95t-98 -34t-97.5 34.5t-34 94.5zM113 94v742q0 45 31.5 77.5t78.5 32.5t79 -32.5t32 -77.5v-742q0 -45 -32 -77.5t-79 -32.5t-78.5 32.5t-31.5 77.5z" />
<glyph unicode="j" horiz-adv-x="436" d="M-100 -238q0 41 30.5 72t71.5 31q49 0 80 35t31 84v852q0 45 31.5 77.5t78.5 32.5t79 -32.5t32 -77.5v-852q0 -137 -94.5 -230.5t-237.5 -93.5q-41 0 -71.5 30.5t-30.5 71.5zM92 1186q0 135 131 135q133 0 133 -135q0 -61 -34.5 -95t-98 -34t-97.5 34.5t-34 94.5z" />
<glyph unicode="k" horiz-adv-x="927" d="M113 90v1262q0 45 31.5 75.5t78.5 30.5t79 -30.5t32 -75.5v-723l371 291q34 26 68 26h3q45 0 76 -30.5t31 -75.5q0 -53 -41 -84l-269 -205l301 -395q23 -31 23 -66q0 -45 -30.5 -75.5t-75.5 -30.5q-53 0 -86 43l-306 409l-65 -51v-295q0 -45 -32 -75.5t-79 -30.5 t-78.5 30.5t-31.5 75.5z" />
<glyph unicode="l" horiz-adv-x="497" d="M113 246v1102q0 45 31.5 77.5t78.5 32.5t79 -32.5t32 -77.5v-1123q0 -16 13 -26.5t26 -10.5q43 0 72.5 -29.5t29.5 -72.5t-29.5 -72.5t-72.5 -29.5q-121 0 -190.5 67.5t-69.5 194.5z" />
<glyph unicode="m" horiz-adv-x="1628" d="M102 90v746q0 45 33 77.5t78 32.5t78 -32.5t33 -77.5q79 122 259 122h3q217 0 303 -133q98 133 293 133q100 0 171.5 -29.5t109.5 -81.5t55.5 -112.5t17.5 -132.5v-512q0 -45 -31.5 -75.5t-79.5 -30.5q-49 0 -79.5 29.5t-30.5 76.5v471q0 197 -180 197q-205 0 -205 -195 v-473q0 -45 -32 -75.5t-79 -30.5q-49 0 -79.5 29.5t-30.5 76.5v471q0 197 -181 197q-205 0 -204 -211v-457q0 -45 -32 -75.5t-79 -30.5t-79 30.5t-32 75.5z" />
<glyph unicode="n" horiz-adv-x="1021" d="M102 90v746q0 45 33 77.5t78 32.5t78 -32.5t33 -77.5q80 122 262 122q344 0 344 -356v-512q0 -45 -32 -75.5t-79 -30.5q-49 0 -79.5 29.5t-30.5 76.5v471q0 197 -181 197q-205 0 -204 -211v-457q0 -45 -32 -75.5t-79 -30.5t-79 30.5t-32 75.5z" />
<glyph unicode="o" horiz-adv-x="1015" d="M59 465q0 246 118 369.5t331 123.5t330.5 -123.5t117.5 -369.5t-117.5 -369t-330.5 -123t-331 123t-118 369zM283 465q0 -303 225 -303t225 303q0 305 -225 305t-225 -305z" />
<glyph unicode="p" horiz-adv-x="1052" d="M113 -301v1137q0 45 31.5 77.5t78.5 32.5t79 -32.5t32 -77.5q27 45 94.5 83.5t146.5 38.5q416 0 416 -491q0 -494 -416 -494q-164 0 -241 88v-362q0 -47 -32 -79t-79 -32t-78.5 32t-31.5 79zM328 465q0 -303 219 -303t219 303q0 305 -219 305t-219 -305z" />
<glyph unicode="q" horiz-adv-x="1011" d="M61 467q0 246 114 368.5t325 122.5q193 0 308.5 -105t115.5 -304v-850q0 -47 -32 -79t-79 -32t-79 32t-32 79v356q-82 -82 -225 -82q-199 0 -307.5 124t-108.5 370zM281 467q0 -150 56 -227.5t163 -77.5q55 0 105 25.5t75 52.5l22 26v283q0 104 -56 162.5t-146 58.5 q-219 0 -219 -303z" />
<glyph unicode="r" horiz-adv-x="663" d="M102 94v742q0 45 33 77.5t78 32.5t78 -32.5t33 -77.5v-11q29 59 92 95t129 36q43 0 73.5 -30.5t30.5 -73.5t-30.5 -73.5t-73.5 -30.5q-104 0 -162.5 -61.5t-58.5 -166.5v-426q0 -45 -33 -77.5t-78 -32.5t-78 32.5t-33 77.5z" />
<glyph unicode="s" horiz-adv-x="870" d="M53 184q0 41 29 70t70 29q33 0 63 -25q102 -84 225 -84q152 0 152 82q0 45 -51.5 73.5t-125 49t-148 50.5t-126 94.5t-51.5 160.5q0 133 96.5 203.5t245.5 70.5q106 0 196.5 -36t135.5 -91q20 -27 20 -61q0 -41 -29.5 -69.5t-68.5 -28.5q-31 0 -70 28q-90 66 -184 66 q-121 0 -121 -78q0 -41 52.5 -68.5t126 -49t147.5 -51.5t126 -93.5t52 -157.5q0 -139 -104.5 -215t-270.5 -76q-121 0 -219 44.5t-143 99.5q-25 31 -25 63z" />
<glyph unicode="t" horiz-adv-x="626" d="M35 838q0 39 26.5 65.5t65.5 26.5h47v172q0 45 32 76.5t77 31.5t76.5 -31.5t31.5 -76.5v-172h92q39 0 65.5 -26.5t26.5 -65.5t-26.5 -66t-65.5 -27h-92v-495q0 -33 23.5 -53.5t54.5 -20.5q39 0 67.5 -28.5t28.5 -67.5t-28.5 -67.5t-67.5 -28.5q-135 0 -215 77.5 t-80 200.5v483h-47q-39 0 -65.5 27t-26.5 66z" />
<glyph unicode="u" horiz-adv-x="993" d="M92 358v478q0 45 32 77.5t79 32.5t78.5 -32.5t31.5 -77.5v-478q0 -184 185 -184q182 0 182 184v478q0 45 32.5 77.5t78 32.5t78 -32.5t32.5 -77.5v-478q0 -174 -89 -279.5t-314 -105.5q-227 0 -316.5 105.5t-89.5 279.5z" />
<glyph unicode="v" horiz-adv-x="925" d="M25 836q0 45 32.5 77.5t77.5 32.5q76 0 103 -69l225 -570l225 570q27 69 101 69h2q45 0 77.5 -32.5t32.5 -77.5q0 -23 -8 -43l-328 -742q-30 -67 -102 -67t-103 67l-327 742q-8 20 -8 43z" />
<glyph unicode="w" horiz-adv-x="1302" d="M25 836q0 45 32.5 77.5t77.5 32.5q78 0 105 -72l170 -503l137 495q8 33 35.5 56.5t70.5 23.5q39 0 68 -22.5t37 -51.5l137 -501l168 503q27 72 106 72q47 0 79 -30.5t32 -75.5q0 -18 -10 -43l-281 -744q-25 -69 -100 -69h-2q-37 0 -67 21t-40 56l-127 449l-127 -447 q-10 -35 -39.5 -57t-66.5 -22q-76 0 -105 71l-280 731q-10 25 -10 50z" />
<glyph unicode="x" horiz-adv-x="864" d="M33 94q0 33 22 68l248 311l-240 295q-23 31 -22 68q0 45 32.5 77.5t78.5 32.5q55 0 88 -43l192 -264l193 264q33 43 88 43q45 0 77.5 -32.5t32.5 -77.5q0 -37 -22 -68l-240 -295l248 -311q23 -33 22 -68q0 -45 -32.5 -77.5t-77.5 -32.5q-57 0 -88 43l-201 282 q-137 -195 -201 -282q-31 -43 -88 -43q-45 0 -77.5 32.5t-32.5 77.5z" />
<glyph unicode="y" horiz-adv-x="925" d="M-18 -309q0 45 30.5 73.5t75.5 28.5q92 0 147.5 65.5t112.5 207.5l-315 727q-8 20 -8 43q0 45 32.5 77.5t77.5 32.5q76 0 103 -69l225 -570l225 570q27 69 101 69h2q45 0 77.5 -32.5t32.5 -77.5q0 -23 -8 -43l-381 -861q-154 -344 -424 -344q-45 0 -75.5 29t-30.5 74z " />
<glyph unicode="z" horiz-adv-x="837" d="M35 94q0 31 22 62l441 589h-346q-39 0 -66 27t-27 66t27 65.5t66 26.5h526q39 0 68.5 -29t29.5 -70q0 -33 -22 -63l-432 -580h372q39 0 66.5 -27.5t27.5 -66.5t-27.5 -66.5t-66.5 -27.5h-565q-39 0 -66.5 27.5t-27.5 66.5z" />
<glyph unicode="{" horiz-adv-x="733" d="M61 606q0 35 26 60.5t60 25.5q70 0 102 25.5t32 101.5q0 66 -16.5 200t-16.5 214q0 113 81 195.5t238 82.5q41 0 71 -29.5t30 -70.5t-30 -70.5t-71 -29.5q-96 0 -96 -97q0 -66 9 -175t9 -160q0 -113 -32.5 -176.5t-112.5 -96.5q80 -33 112.5 -96.5t32.5 -175.5 q0 -51 -9 -161t-9 -175q0 -96 96 -96q41 0 71 -30t30 -71t-30 -70.5t-71 -29.5q-158 0 -238.5 83t-80.5 196q0 80 16.5 214t16.5 199q0 76 -32 101.5t-102 25.5q-35 0 -60.5 25.5t-25.5 60.5z" />
<glyph unicode="|" horiz-adv-x="450" d="M113 -215v1757q0 47 33.5 80t78.5 33t79 -33t34 -80v-1757q0 -47 -34 -80t-79 -33t-78.5 33t-33.5 80z" />
<glyph unicode="}" horiz-adv-x="733" d="M66 -199q0 41 29.5 71t70.5 30q96 0 96 96q0 66 -9 175.5t-9 160.5q0 113 32.5 176t112.5 96q-80 33 -112.5 96.5t-32.5 176.5q0 51 9 160.5t9 174.5q0 96 -96 97q-41 0 -70.5 29.5t-29.5 70.5t29.5 70.5t70.5 29.5q158 0 238.5 -82.5t80.5 -195.5q0 -80 -16 -214 t-16 -200q0 -76 31.5 -101.5t101.5 -25.5q35 0 60.5 -25.5t25.5 -60.5t-25.5 -60.5t-60.5 -25.5q-70 0 -101.5 -25.5t-31.5 -101.5q0 -66 16 -200t16 -213q0 -113 -80.5 -196t-238.5 -83q-41 0 -70.5 29.5t-29.5 70.5z" />
<glyph unicode="~" horiz-adv-x="958" d="M49 565q0 18 6 37q23 70 86.5 117t165.5 47q78 0 190.5 -59.5t153.5 -59.5q49 0 76 49q27 53 86 54q39 0 67.5 -29t28.5 -68q0 -18 -6 -37q-23 -70 -86 -116.5t-166 -46.5q-76 0 -187.5 60t-156.5 60q-49 0 -76 -51q-27 -53 -86 -53q-39 0 -67.5 27.5t-28.5 68.5z" />
<glyph unicode="&#xa1;" horiz-adv-x="434" d="M84 825q0 133 135 133q133 0 133 -133q0 -137 -133 -137q-135 0 -135 137zM92 -338l37 815q4 78 90 78q82 0 86 -78l39 -815q6 -115 -125 -115q-133 0 -127 115z" />
<glyph unicode="&#xa2;" horiz-adv-x="923" d="M59 467q0 217 91.5 339t259.5 146v76q0 39 27.5 67.5t66.5 28.5q41 0 68.5 -27.5t27.5 -68.5v-80q152 -29 238 -131q23 -31 22 -63q0 -41 -28.5 -70t-69.5 -29q-45 0 -76 35q-74 80 -182 80q-106 0 -163.5 -79t-57.5 -224q0 -147 57 -226t164 -79q94 0 203 82 q29 20 61 20q41 0 69.5 -28.5t28.5 -69.5q0 -43 -35 -76q-94 -84 -231 -108v-82q0 -39 -27.5 -68t-68.5 -29q-39 0 -66.5 29t-27.5 68v80q-168 25 -259.5 147.5t-91.5 339.5z" />
<glyph unicode="&#xa3;" horiz-adv-x="1200" d="M55 639q0 43 30 72.5t73 29.5h30q-70 143 -69 254q0 176 128 294t333 118q172 0 293.5 -72.5t177.5 -199.5q8 -23 8 -43q0 -45 -32 -77t-77 -32q-63 0 -100 68q-82 152 -270 151q-106 0 -171 -58.5t-65 -148.5q0 -102 78 -254h293q43 0 72.5 -29.5t29.5 -72.5 t-29.5 -72.5t-72.5 -29.5h-211q10 -45 10 -84q0 -68 -36 -134.5t-95 -111.5q70 33 139 33q59 0 145.5 -32t133.5 -32q98 0 133 76q31 61 100 61q47 0 79 -31.5t32 -78.5q0 -27 -12 -51q-88 -182 -322 -183q-59 0 -176 45t-180 45q-82 0 -160 -55q-35 -25 -70 -24 q-45 0 -76.5 31.5t-31.5 76.5q0 51 39 84q141 127 141 264q0 47 -16 101h-123q-43 0 -73 29.5t-30 72.5z" />
<glyph unicode="&#xa4;" horiz-adv-x="958" d="M39 313q0 45 33 78l57 55q-47 80 -47 188.5t53 192.5l-61 54q-35 31 -35 80q0 45 30.5 75.5t75.5 30.5q43 0 76 -31l62 -61q82 49 196.5 49t196.5 -49l61 61q33 31 76 31q45 0 76 -30.5t31 -75.5q0 -49 -35 -80l-62 -54q53 -84 53.5 -192.5t-47.5 -188.5l58 -55 q33 -33 33 -78t-31 -75.5t-76 -30.5q-43 0 -76 31l-57 57q-86 -49 -200.5 -49t-200.5 49l-58 -57q-33 -31 -76 -31q-45 0 -75.5 30.5t-30.5 75.5zM293 635q0 -80 52 -135.5t134 -55.5t134.5 55.5t52.5 135.5q0 82 -52.5 136t-134.5 54t-134 -54t-52 -136z" />
<glyph unicode="&#xa5;" horiz-adv-x="1134" d="M39 1276q0 49 35 84t84 35q66 0 100 -56l309 -485l310 485q35 55 100 56q49 0 84 -35t35 -84q0 -39 -19 -64l-350 -522h180q39 0 66.5 -27.5t27.5 -66.5t-27.5 -66.5t-66.5 -27.5h-221v-84h221q39 0 66.5 -28t27.5 -66.5t-27.5 -66.5t-66.5 -28h-221v-127 q0 -49 -35 -83.5t-84 -34.5t-83.5 34.5t-34.5 83.5v127h-222q-39 0 -66.5 28t-27.5 66.5t27.5 66.5t66.5 28h222v84h-222q-39 0 -66.5 27.5t-27.5 66.5t27.5 66.5t66.5 27.5h181l-351 522q-18 25 -18 64z" />
<glyph unicode="&#xa6;" horiz-adv-x="450" d="M113 -215v702q0 45 33.5 79t78.5 34t79 -34t34 -79v-702q0 -47 -34 -80t-79 -33t-78.5 33t-33.5 80zM113 842v700q0 47 33.5 80t78.5 33t79 -33t34 -80v-700q0 -47 -34 -80t-79 -33t-78.5 33t-33.5 80z" />
<glyph unicode="&#xa7;" horiz-adv-x="1013" d="M47 584q0 141 119 239q-92 98 -92 232q0 150 113.5 251t322.5 101q264 0 424 -182q23 -27 22 -66q0 -43 -30.5 -73.5t-73.5 -30.5t-78 35q-115 111 -264 110q-106 0 -158.5 -43t-52.5 -102q0 -57 37 -100.5t95 -71t130 -53t143.5 -58.5t130 -76t95.5 -115.5t37 -168.5 q0 -141 -119 -240q92 -98 92 -231q0 -150 -113.5 -251.5t-322.5 -101.5q-276 0 -422 181q-25 29 -25 67q0 43 31 74t74 31q45 0 80 -35q111 -111 262 -111q106 0 158.5 43t52.5 103q0 57 -37 100t-95.5 70.5t-130 53t-143 58.5t-130 76t-95.5 116t-37 169zM264 584 q0 -80 77 -134.5t208 -98.5t156 -58q45 53 45 119q0 80 -77 134t-208 98t-156 58q-45 -53 -45 -118z" />
<glyph unicode="&#xa8;" horiz-adv-x="673" d="M49 1171q0 109 102.5 109t102.5 -109q0 -104 -102.5 -104t-102.5 104zM420 1171q0 109 102.5 109t102.5 -109q0 -104 -102.5 -104t-102.5 104z" />
<glyph unicode="&#xa9;" horiz-adv-x="1619" d="M98 688q0 358 185.5 538.5t527.5 180.5q346 0 528.5 -179t182.5 -540q0 -358 -182.5 -537.5t-528.5 -179.5q-342 0 -527.5 180.5t-185.5 536.5zM254 688q0 -573 557 -573q279 0 417 140t138 433t-138 434.5t-417 141.5q-557 0 -557 -576zM481 690.5q0 190.5 88 282.5 t246 92q98 0 165 -38t95 -85q8 -14 8 -33q0 -25 -17 -42t-42 -17q-27 0 -45 20q-66 72 -164 72q-96 0 -147.5 -55.5t-51.5 -196.5q0 -139 52.5 -194.5t146.5 -55.5q106 0 178 64q16 16 41 16t42.5 -17.5t17.5 -41.5q0 -18 -11 -33q-33 -47 -106.5 -79t-161.5 -32 q-158 0 -246 91.5t-88 282z" />
<glyph unicode="&#xaa;" horiz-adv-x="729" d="M63 565.5q0 30.5 21.5 52t52.5 21.5h453q31 0 52.5 -21.5t21.5 -52t-21.5 -52t-52.5 -21.5h-453q-31 0 -52.5 21.5t-21.5 52zM82 948q0 92 63.5 144.5t157.5 52.5h189v24q0 101 -125 101q-70 0 -140 -56q-18 -12 -39 -12q-29 0 -48 19.5t-19 48.5q0 27 18 47 q78 90 228 90q129 0 202.5 -60.5t73.5 -170.5v-353q0 -31 -22.5 -53t-53 -22t-53 23.5t-22.5 51.5q-55 -84 -179 -84q-102 0 -166.5 57.5t-64.5 151.5zM238 948q-1 -82 114 -82q57 0 98.5 34t41.5 89v37h-158q-96 0 -96 -78z" />
<glyph unicode="&#xab;" horiz-adv-x="1067" d="M94 434.5q0 28.5 23 54.5l315 363q27 31 62 31q33 0 56 -23.5t23 -56.5q0 -31 -20 -51l-289 -318l289 -317q20 -20 20 -51q0 -33 -23.5 -56.5t-55.5 -23.5q-35 0 -62 30l-315 363q-23 27 -23 55.5zM494 434.5q0 28.5 22 54.5l315 363q29 31 62 31t56.5 -23.5t23.5 -56.5 q0 -31 -21 -51l-288 -318l288 -317q20 -20 21 -51q0 -33 -23.5 -56.5t-56.5 -23.5t-62 30l-315 363q-22 27 -22 55.5z" />
<glyph unicode="&#xac;" horiz-adv-x="1163" d="M68 577.5q0 40.5 29.5 69.5t68.5 29h827q41 0 72 -31t31 -72v-487q0 -41 -31 -71.5t-72 -30.5t-71.5 30.5t-30.5 71.5v393h-725q-39 0 -68.5 29t-29.5 69.5z" />
<glyph unicode="&#xad;" horiz-adv-x="774" d="M88 516q0 39 27.5 66.5t66.5 27.5h410q39 0 66.5 -27.5t27.5 -66.5t-27.5 -66.5t-66.5 -27.5h-410q-39 0 -66.5 27.5t-27.5 66.5z" />
<glyph unicode="&#xae;" horiz-adv-x="802" d="M82 1095.5q0 155.5 79 233.5t222 78q305 0 305 -311q0 -313 -305 -314q-143 0 -222 79t-79 234.5zM152 1096q0 -254 233 -254t233 254t-233 254t-233 -254zM266 965v264q0 27 27 26h119q45 0 73.5 -29.5t28.5 -70.5q0 -45 -23.5 -72.5t-58.5 -27.5l66 -74q6 -8 6 -18 q0 -29 -29 -29q-16 0 -24 12l-80 109h-43v-90q0 -12 -9.5 -21.5t-21.5 -9.5t-21.5 9t-9.5 22zM328 1108h75q49 0 49.5 47t-49.5 47h-75v-94z" />
<glyph unicode="&#xaf;" horiz-adv-x="813" d="M152 1151q0 33 22.5 55.5t54.5 22.5h355q33 0 55.5 -22.5t22.5 -55.5t-23 -55.5t-55 -22.5h-355q-33 0 -55 22.5t-22 55.5z" />
<glyph unicode="&#xb0;" horiz-adv-x="759" d="M100 1126.5q0 116.5 80 198.5t199 82q121 0 200.5 -82t79.5 -198.5t-79.5 -197.5t-200.5 -81q-119 0 -199 81t-80 197.5zM233 1126q0 -59 41 -102t105 -43q66 0 106.5 43t40.5 102q0 61 -41 104.5t-106 43.5q-63 0 -104.5 -43t-41.5 -105z" />
<glyph unicode="&#xb1;" horiz-adv-x="929" d="M0 94q0 39 27.5 66.5t66.5 27.5h742q39 0 66.5 -27.5t27.5 -66.5t-28 -66.5t-66 -27.5h-742q-39 0 -66.5 27.5t-27.5 66.5zM0 663.5q0 38.5 27.5 66.5t66.5 28h273v248q0 39 29.5 68.5t68.5 29.5t68.5 -30t29.5 -68v-248h273q39 0 66.5 -28t27.5 -66.5t-28 -66.5t-66 -28 h-273v-245q0 -41 -29.5 -70t-68.5 -29t-68.5 29t-29.5 70v245h-273q-39 0 -66.5 28t-27.5 66.5z" />
<glyph unicode="&#xb2;" horiz-adv-x="591" d="M55 944q0 86 50.5 146.5t110.5 86t110.5 57.5t50.5 66q0 61 -88 62q-47 0 -105 -53q-23 -18 -45 -19q-29 0 -48 20.5t-19 47.5q0 24 20 51q27 35 82 60.5t115 25.5q109 0 174 -54.5t65 -140.5q0 -68 -48 -117.5t-106.5 -72.5t-106.5 -51.5t-48 -57.5h252q29 0 47.5 -19 t18.5 -46t-18.5 -46.5t-47.5 -19.5h-342q-31 0 -52.5 21.5t-21.5 52.5z" />
<glyph unicode="&#xb3;" horiz-adv-x="565" d="M39 997q0 27 18.5 46.5t45 19.5t47.5 -21q55 -55 122 -55q96 0 96.5 80t-77.5 80h-45q-25 0 -42.5 17.5t-17.5 41.5q0 27 25 54l88 92h-172q-29 0 -47.5 18.5t-18.5 47t18.5 47t47.5 18.5h289q27 0 46 -18.5t19 -47.5q0 -27 -20 -49l-105 -108q78 0 119 -62.5t41 -130.5 q0 -96 -61.5 -152.5t-182.5 -56.5q-78 0 -135 32t-82 62q-16 23 -16 45z" />
<glyph unicode="&#xb4;" horiz-adv-x="786" d="M236 1145l174 221q20 29 56 27t66 -33q33 -31 34 -65.5t-25 -57.5l-201 -184q-49 -43 -94 0q-51 47 -10 92z" />
<glyph unicode="&#xb5;" horiz-adv-x="993" d="M92 -309v1145q0 45 32 77.5t79 32.5t78.5 -32.5t31.5 -77.5v-478q0 -184 185 -184q182 0 182 184v478q0 45 32.5 77.5t78 32.5t78 -32.5t32.5 -77.5v-478q0 -174 -89 -279.5t-314 -105.5q-125 0 -185 64v-346q0 -47 -31.5 -79t-78.5 -32t-79 32t-32 79z" />
<glyph unicode="&#xb6;" horiz-adv-x="1130" d="M68 989q0 162 112.5 275.5t274.5 113.5h538q43 0 74 -30.5t31 -73.5t-31 -74t-74 -31h-26v-557q0 -680 -600 -680q-57 0 -134 13.5t-108 31.5q-53 29 -53 91q0 41 30.5 71.5t71.5 30.5q23 0 72 -18.5t82 -18.5q174 0 174 301v168h-47q-162 0 -274.5 112.5t-112.5 274.5z M549 137q98 49 141 143.5t43 272.5v616h-76v-706q0 -209 -108 -326z" />
<glyph unicode="&#xb7;" horiz-adv-x="460" d="M96 614q0 137 135 138q133 0 134 -138q-1 -133 -134 -133q-135 0 -135 133z" />
<glyph unicode="&#xb8;" horiz-adv-x="669" d="M129 -395q0 23 15.5 38t37.5 15q12 0 25 -6q57 -29 117 -29q100 0 100 92q0 86 -111 86q-18 0 -46.5 -6t-43.5 -6q-43 0 -43 45v166h103l-11 -109q27 6 72 7q88 0 141.5 -48.5t53.5 -134.5q0 -199 -224 -198q-96 0 -163 45q-23 14 -23 43z" />
<glyph unicode="&#xb9;" horiz-adv-x="466" d="M49 1309q0 39 35 61l170 107q20 12 41 12q31 0 53.5 -22.5t22.5 -53.5v-473q0 -31 -22.5 -53.5t-53.5 -22.5t-53.5 22.5t-22.5 53.5v346l-65 -41q-16 -8 -33 -8q-29 0 -50.5 21.5t-21.5 50.5z" />
<glyph unicode="&#xba;" horiz-adv-x="741" d="M63 565.5q0 30.5 21.5 52t52.5 21.5h453q31 0 52.5 -21.5t21.5 -52t-21.5 -52t-52.5 -21.5h-453q-31 0 -52.5 21.5t-21.5 52zM66 1073q0 166 79.5 250t223.5 84q145 0 225 -84t80 -250t-80 -250t-225 -84q-143 0 -223 84t-80 250zM217 1073q0 -205 152 -205 q153 0 153 205t-153 205q-152 0 -152 -205z" />
<glyph unicode="&#xbb;" horiz-adv-x="1067" d="M94 66q0 31 21 51l288 317l-288 318q-20 20 -21 51q0 33 23.5 56.5t56.5 23.5q35 0 62 -31l315 -363q22 -26 22 -54.5t-22 -55.5l-315 -363q-27 -31 -62 -30q-33 0 -56.5 23.5t-23.5 56.5zM494 66q0 31 20 51l289 317l-289 318q-20 20 -20 51q0 33 23.5 56.5t55.5 23.5 q33 0 62 -31l315 -363q23 -26 23 -54.5t-23 -55.5l-315 -363q-29 -31 -62 -30q-33 0 -56 23.5t-23 56.5z" />
<glyph unicode="&#xbc;" horiz-adv-x="1048" d="M41 1221q0 39 35 61l170 107q20 12 41 12q31 0 53 -22.5t22 -53.5v-473q0 -31 -22.5 -53.5t-53 -22.5t-53 22.5t-22.5 53.5v346l-66 -41q-16 -8 -32 -8q-29 0 -50.5 21.5t-21.5 50.5zM168 70q0 16 6 30l481 1239q23 55 80 56q37 0 61.5 -26t24.5 -60q0 -14 -6 -31 l-481 -1239q-20 -55 -80 -55q-35 0 -60.5 25.5t-25.5 60.5zM492 174q0 23 14 41l264 358q29 35 64 35q31 0 53 -22.5t22 -53.5v-290h29q29 0 48.5 -20.5t19.5 -47.5t-19.5 -47.5t-48.5 -20.5h-29v-47q0 -31 -22.5 -53t-53 -22t-53 22.5t-22.5 52.5v47h-199q-27 0 -47 20.5 t-20 47.5zM659 242h99v139z" />
<glyph unicode="&#xbd;" horiz-adv-x="1122" d="M51 1221q0 39 35 61l170 107q20 12 41 12q31 0 53.5 -22.5t22.5 -53.5v-473q0 -31 -22.5 -53.5t-53.5 -22.5t-53.5 22.5t-22.5 53.5v346l-65 -41q-16 -8 -33 -8q-29 0 -50.5 21.5t-21.5 50.5zM178 70q0 16 6 30l482 1239q23 55 79 56q37 0 61.5 -26t24.5 -60 q0 -14 -6 -31l-481 -1239q-20 -55 -80 -55q-35 0 -60.5 25.5t-25.5 60.5zM588 74q0 86 50 146.5t110.5 86t110.5 57t50 66.5q0 61 -88 62q-47 0 -104 -54q-20 -18 -45 -18q-29 0 -48.5 19.5t-19.5 47.5q1 25 21 52q27 35 82 60.5t114 25.5q109 0 174.5 -54.5t65.5 -140.5 q0 -68 -48 -118t-106.5 -72.5t-106.5 -51t-48 -57.5h252q29 0 47 -18.5t18 -47t-18.5 -47t-46.5 -18.5h-342q-31 0 -52.5 21.5t-21.5 52.5z" />
<glyph unicode="&#xbe;" horiz-adv-x="1142" d="M39 909q0 27 18.5 46.5t45 19.5t47.5 -21q55 -55 122 -55q96 0 96.5 80t-77.5 80h-45q-25 0 -42.5 17.5t-17.5 42t25 52.5l88 93h-172q-29 0 -47.5 19.5t-18.5 46t18.5 46t47.5 19.5h289q27 0 46 -19.5t19 -46t-20 -49.5l-105 -109q78 0 119 -62t41 -130 q0 -96 -61.5 -152.5t-182.5 -56.5q-78 0 -135 32t-82 62q-16 23 -16 45zM283 70q0 16 6 30l481 1239q23 55 80 56q37 0 61.5 -26t24.5 -60q0 -14 -6 -31l-481 -1239q-20 -55 -80 -55q-35 0 -60.5 25.5t-25.5 60.5zM606 174q0 23 15 41l264 358q29 35 63 35q31 0 53.5 -22.5 t22.5 -53.5v-290h29q29 0 48 -20.5t19 -47.5t-19.5 -47.5t-47.5 -20.5h-29v-47q0 -31 -22.5 -53t-53 -22t-53.5 22.5t-23 52.5v47h-198q-27 0 -47.5 20.5t-20.5 47.5zM774 242h98v139z" />
<glyph unicode="&#xbf;" horiz-adv-x="927" d="M41 -106q0 113 61.5 195.5t134 120.5t134 80t61.5 81q0 20 -20 49q-18 27 -19 61q0 49 35 80t76 31q47 0 80 -33q76 -74 75 -174q0 -86 -62 -154.5t-136 -106.5t-136.5 -98.5t-62.5 -131.5q0 -76 54.5 -117t152.5 -41q88 0 140.5 44t52.5 128q0 47 33.5 79.5t78.5 32.5 t79 -32.5t34 -79.5q0 -176 -110.5 -274.5t-307.5 -98.5q-203 0 -315.5 93t-112.5 266zM377 825q0 133 133 133q135 0 135 -133q0 -137 -135 -137q-133 0 -133 137z" />
<glyph unicode="&#xc0;" horiz-adv-x="1277" d="M39 100q0 25 8 43l483 1178q31 74 109 74t109 -74l483 -1178q8 -18 8 -43q0 -47 -35 -81.5t-82 -34.5q-78 0 -110 77l-125 297h-496l-125 -297q-33 -78 -110 -77q-47 0 -82 34.5t-35 81.5zM468 1720.5q1 34.5 34 65.5q31 31 66.5 33t56.5 -27l174 -221q40 -45 -11 -92 q-45 -43 -94 0l-200 184q-27 23 -26 57.5zM471 575h336l-168 431z" />
<glyph unicode="&#xc1;" horiz-adv-x="1277" d="M39 100q0 25 8 43l483 1178q31 74 109 74t109 -74l483 -1178q8 -18 8 -43q0 -47 -35 -81.5t-82 -34.5q-78 0 -110 77l-125 297h-496l-125 -297q-33 -78 -110 -77q-47 0 -82 34.5t-35 81.5zM471 575h336l-168 431zM481 1571l174 221q20 29 56.5 27t66.5 -33 q33 -31 34 -65.5t-26 -57.5l-200 -184q-49 -43 -94 0q-51 47 -11 92z" />
<glyph unicode="&#xc2;" horiz-adv-x="1277" d="M39 100q0 25 8 43l483 1178q31 74 109 74t109 -74l483 -1178q8 -18 8 -43q0 -47 -35 -81.5t-82 -34.5q-78 0 -110 77l-125 297h-496l-125 -297q-33 -78 -110 -77q-47 0 -82 34.5t-35 81.5zM365 1544q0 41 36 68l191 127q20 14 47 14t47 -14l191 -127q37 -27 36 -68 q0 -33 -22.5 -56.5t-56.5 -23.5q-29 0 -48 15l-147 102l-147 -102q-18 -14 -48 -15q-35 0 -57 23.5t-22 56.5zM471 575h336l-168 431z" />
<glyph unicode="&#xc3;" horiz-adv-x="1277" d="M39 100q0 25 8 43l483 1178q31 74 109 74t109 -74l483 -1178q8 -18 8 -43q0 -47 -35 -81.5t-82 -34.5q-78 0 -110 77l-125 297h-496l-125 -297q-33 -78 -110 -77q-47 0 -82 34.5t-35 81.5zM315 1575q0 20 7 33q20 49 68 77.5t108 28.5q61 0 146 -34.5t118 -34.5 q29 0 53 32q25 35 68 35q35 0 57.5 -22.5t22.5 -57.5q0 -20 -7 -33q-20 -49 -68 -77.5t-108 -28.5q-63 0 -149 35t-115 35t-53 -33q-25 -35 -68 -35q-35 0 -57.5 22.5t-22.5 57.5zM471 575h336l-168 431z" />
<glyph unicode="&#xc4;" horiz-adv-x="1277" d="M39 100q0 25 8 43l483 1178q31 74 109 74t109 -74l483 -1178q8 -18 8 -43q0 -47 -35 -81.5t-82 -34.5q-78 0 -110 77l-125 297h-496l-125 -297q-33 -78 -110 -77q-47 0 -82 34.5t-35 81.5zM352 1620q0 109 102.5 109t102.5 -109q0 -104 -102.5 -104t-102.5 104zM471 575 h336l-168 431zM723 1620q0 109 102.5 109t102.5 -109q0 -104 -102.5 -104t-102.5 104z" />
<glyph unicode="&#xc5;" horiz-adv-x="1277" d="M39 100q0 25 8 43l483 1178q31 74 109 74t109 -74l483 -1178q8 -18 8 -43q0 -47 -35 -81.5t-82 -34.5q-78 0 -110 77l-125 297h-496l-125 -297q-33 -78 -110 -77q-47 0 -82 34.5t-35 81.5zM422 1642.5q0 96.5 55 149.5t161.5 53t162 -53t55.5 -149.5t-55.5 -149.5 t-162 -53t-161.5 53t-55 149.5zM471 575h336l-168 431zM537 1642.5q0 -100.5 102 -100.5t102 100.5t-102 100.5t-102 -100.5z" />
<glyph unicode="&#xc6;" horiz-adv-x="1769" d="M47 100q0 33 21 66l772 1159q37 53 94 53h645q45 0 76 -30.5t31 -75.5t-31 -76t-76 -31h-520v-366h387q43 0 73.5 -31t30.5 -74t-30.5 -73.5t-73.5 -30.5h-387v-377h543q45 0 75.5 -30.5t30.5 -76t-30.5 -76t-75.5 -30.5h-662q-49 0 -84 33t-35 82v264h-344l-215 -340 q-37 -55 -98 -55q-47 0 -82 34.5t-35 81.5zM606 596h215v340z" />
<glyph unicode="&#xc7;" horiz-adv-x="1310" d="M70 688q0 358 164.5 538.5t476.5 180.5q342 0 493 -221q23 -35 23 -68q0 -45 -33 -76.5t-78 -31.5t-84 41q-68 74 -141.5 108.5t-179.5 34.5q-203 0 -299.5 -125t-96.5 -381q0 -266 94.5 -385t301.5 -119q113 0 185.5 30t145.5 105q45 45 88 46q45 0 78 -33t33 -78 q0 -35 -20 -61q-180 -221 -541 -222l-6 -80q27 6 71 7q88 0 141.5 -48.5t53.5 -134.5q0 -199 -223 -198q-96 0 -164 45q-23 14 -23 43q0 23 15.5 38t38.5 15q12 0 24 -6q57 -29 117 -29q100 0 100 92q0 86 -110 86q-18 0 -47 -6t-43 -6q-43 0 -43 45v146q-512 68 -512 708z " />
<glyph unicode="&#xc8;" horiz-adv-x="1071" d="M123 119v1141q0 49 35 83.5t84 34.5h639q45 0 75.5 -30.5t30.5 -75.5t-30.5 -76t-75.5 -31h-521v-366h388q43 0 73.5 -31t30.5 -74t-30.5 -73.5t-73.5 -30.5h-388v-377h543q45 0 76 -30.5t31 -76t-31 -76t-76 -30.5h-661q-49 0 -84 35t-35 84zM388 1720.5q1 34.5 34 65.5 q31 31 66.5 33t56.5 -27l174 -221q41 -45 -10 -92q-45 -43 -95 0l-200 184q-27 23 -26 57.5z" />
<glyph unicode="&#xc9;" horiz-adv-x="1071" d="M123 119v1141q0 49 35 83.5t84 34.5h639q45 0 75.5 -30.5t30.5 -75.5t-30.5 -76t-75.5 -31h-521v-366h388q43 0 73.5 -31t30.5 -74t-30.5 -73.5t-73.5 -30.5h-388v-377h543q45 0 76 -30.5t31 -76t-31 -76t-76 -30.5h-661q-49 0 -84 35t-35 84zM446 1571l175 221 q20 29 56 27t66 -33q33 -31 34 -65.5t-25 -57.5l-201 -184q-49 -43 -94 0q-51 47 -11 92z" />
<glyph unicode="&#xca;" horiz-adv-x="1071" d="M123 119v1141q0 49 35 83.5t84 34.5h639q45 0 75.5 -30.5t30.5 -75.5t-30.5 -76t-75.5 -31h-521v-366h388q43 0 73.5 -31t30.5 -74t-30.5 -73.5t-73.5 -30.5h-388v-377h543q45 0 76 -30.5t31 -76t-31 -76t-76 -30.5h-661q-49 0 -84 35t-35 84zM297 1544q0 41 37 68 l190 127q21 14 47.5 14t46.5 -14l191 -127q37 -27 37 -68q0 -33 -23.5 -56.5t-56.5 -23.5q-29 0 -47 15l-148 102l-147 -102q-18 -14 -47 -15q-33 0 -56.5 23.5t-23.5 56.5z" />
<glyph unicode="&#xcb;" horiz-adv-x="1071" d="M123 119v1141q0 49 35 83.5t84 34.5h639q45 0 75.5 -30.5t30.5 -75.5t-30.5 -76t-75.5 -31h-521v-366h388q43 0 73.5 -31t30.5 -74t-30.5 -73.5t-73.5 -30.5h-388v-377h543q45 0 76 -30.5t31 -76t-31 -76t-76 -30.5h-661q-49 0 -84 35t-35 84zM281 1620q0 109 102 109 t102 -109q0 -104 -102 -104t-102 104zM651 1620q0 109 102.5 109t102.5 -109q0 -104 -102.5 -104t-102.5 104z" />
<glyph unicode="&#xcc;" horiz-adv-x="483" d="M70.5 1720.5q1.5 34.5 33.5 65.5q31 31 67 33t56 -27l174 -221q41 -45 -10 -92q-45 -43 -94 0l-201 184q-27 23 -25.5 57.5zM123 102v1174q0 49 35 84t84 35t83.5 -35t34.5 -84v-1174q0 -49 -34.5 -83.5t-83.5 -34.5t-84 34.5t-35 83.5z" />
<glyph unicode="&#xcd;" horiz-adv-x="483" d="M121 1571l174 221q20 29 56 27t67 -33q33 -31 34 -65.5t-26 -57.5l-201 -184q-49 -43 -94 0q-51 47 -10 92zM123 102v1174q0 49 35 84t84 35t83.5 -35t34.5 -84v-1174q0 -49 -34.5 -83.5t-83.5 -34.5t-84 34.5t-35 83.5z" />
<glyph unicode="&#xce;" horiz-adv-x="483" d="M-31 1544q0 41 37 68l191 127q20 14 46.5 14t47.5 -14l190 -127q37 -27 37 -68q0 -33 -23.5 -56.5t-56.5 -23.5q-29 0 -47 15l-147 102l-148 -102q-18 -14 -47 -15q-33 0 -56.5 23.5t-23.5 56.5zM123 102v1174q0 49 35 84t84 35t83.5 -35t34.5 -84v-1174 q0 -49 -34.5 -83.5t-83.5 -34.5t-84 34.5t-35 83.5z" />
<glyph unicode="&#xcf;" horiz-adv-x="483" d="M-41 1620q0 109 102.5 109t102.5 -109q0 -104 -102.5 -104t-102.5 104zM123 102v1174q0 49 35 84t84 35t83.5 -35t34.5 -84v-1174q0 -49 -34.5 -83.5t-83.5 -34.5t-84 34.5t-35 83.5zM330 1620q0 109 102.5 109t102.5 -109q0 -104 -102.5 -104t-102.5 104z" />
<glyph unicode="&#xd0;" horiz-adv-x="1302" d="M35 713q0 39 27.5 66.5t66.5 27.5h45v453q0 49 35 83.5t84 34.5h276q322 0 494 -162.5t172 -527t-172 -526.5t-494 -162h-276q-49 0 -84 35t-35 84v499h-45q-39 0 -66.5 28t-27.5 67zM412 213h157q207 0 313.5 109.5t106.5 365.5t-106.5 366.5t-313.5 110.5h-157v-358 h288q39 0 67 -27.5t28 -66.5t-28 -67t-67 -28h-288v-405z" />
<glyph unicode="&#xd1;" horiz-adv-x="1275" d="M113 100v1178q0 47 34.5 82t81.5 35q61 0 95 -49l606 -879v811q0 47 34.5 82t82 35t82 -35t34.5 -82v-1178q0 -47 -34.5 -81.5t-81.5 -34.5q-61 0 -97 51l-604 872v-807q0 -47 -35 -81.5t-82 -34.5t-81.5 34.5t-34.5 81.5zM313 1575q0 20 6 33q20 49 68.5 77.5 t108.5 28.5q61 0 146 -34.5t118 -34.5q29 0 53 32q25 35 68 35q33 0 56.5 -22.5t23.5 -57.5q0 -20 -7 -33q-20 -49 -68 -77.5t-108 -28.5q-63 0 -149 35t-115 35t-53 -33q-25 -35 -68 -35q-33 0 -56.5 22.5t-23.5 57.5z" />
<glyph unicode="&#xd2;" d="M70 688q0 -354 168 -535.5t481 -181.5t481 181.5t168 535.5q0 358 -167 538.5t-482.5 180.5t-482 -180t-166.5 -539zM315 688q0 506 403.5 506t403.5 -506q0 -504 -403.5 -504t-403.5 504zM547.5 1720.5q1.5 34.5 34.5 65.5q31 31 66.5 33t56.5 -27l174 -221 q40 -45 -11 -92q-45 -43 -94 0l-201 184q-27 23 -25.5 57.5z" />
<glyph unicode="&#xd3;" d="M70 688q0 -354 168 -535.5t481 -181.5t481 181.5t168 535.5q0 358 -167 538.5t-482.5 180.5t-482 -180t-166.5 -539zM315 688q0 506 403.5 506t403.5 -506q0 -504 -403.5 -504t-403.5 504zM596 1571l174 221q20 29 56 27t67 -33q33 -31 34 -65.5t-26 -57.5l-201 -184 q-49 -43 -94 0q-51 47 -10 92z" />
<glyph unicode="&#xd4;" d="M70 688q0 -354 168 -535.5t481 -181.5t481 181.5t168 535.5q0 358 -167 538.5t-482.5 180.5t-482 -180t-166.5 -539zM315 688q0 506 403.5 506t403.5 -506q0 -504 -403.5 -504t-403.5 504zM442 1544q0 41 37 68l191 127q20 14 46.5 14t47.5 -14l190 -127q37 -27 37 -68 q0 -33 -22.5 -56.5t-57.5 -23.5q-29 0 -47 15l-147 102l-148 -102q-18 -14 -47 -15q-35 0 -57.5 23.5t-22.5 56.5z" />
<glyph unicode="&#xd5;" d="M70 688q0 -354 168 -535.5t481 -181.5t481 181.5t168 535.5q0 358 -167 538.5t-482.5 180.5t-482 -180t-166.5 -539zM315 688q0 506 403.5 506t403.5 -506q0 -504 -403.5 -504t-403.5 504zM395 1575q0 20 6 33q20 49 68.5 77.5t108.5 28.5q61 0 146 -34.5t118 -34.5 q29 0 53 32q25 35 68 35q33 0 56 -22.5t23 -57.5q0 -20 -6 -33q-20 -49 -68 -77.5t-108 -28.5q-63 0 -149 35t-115 35t-53 -33q-25 -35 -68 -35q-33 0 -56.5 22.5t-23.5 57.5z" />
<glyph unicode="&#xd6;" d="M70 688q0 -354 168 -535.5t481 -181.5t481 181.5t168 535.5q0 358 -167 538.5t-482.5 180.5t-482 -180t-166.5 -539zM315 688q0 506 403.5 506t403.5 -506q0 -504 -403.5 -504t-403.5 504zM430 1620q0 109 102.5 109t102.5 -109q0 -104 -102.5 -104t-102.5 104zM801 1620 q0 109 102.5 109t102.5 -109q0 -104 -102.5 -104t-102.5 104z" />
<glyph unicode="&#xd7;" horiz-adv-x="761" d="M0 182q0 43 33 74l207 193l-207 192q-33 29 -33 74q0 41 29.5 70.5t70.5 29.5t70 -29l211 -200l211 200q29 29 69.5 29t70.5 -29.5t30 -70.5q0 -45 -33 -74l-207 -192l207 -193q33 -29 33 -74q0 -41 -30 -70.5t-70.5 -29.5t-69.5 29l-211 200l-211 -200q-29 -29 -70 -29 t-70.5 29.5t-29.5 70.5z" />
<glyph unicode="&#xd8;" d="M70 688q0 358 166.5 538.5t482.5 180.5q236 0 387 -100l70 86q27 33 69 32q37 0 63.5 -26.5t26.5 -63.5q0 -33 -20 -57l-78 -96q131 -178 131 -494q0 -354 -168 -535.5t-481 -181.5q-233 0 -385 99l-74 -90q-27 -33 -70 -33q-37 0 -63.5 26.5t-26.5 63.5q0 33 21 57 l82 101q-133 176 -133 493zM315 688q0 -178 50 -295l596 733q-97 68 -242 68q-403 0 -404 -506zM479 250q90 -66 240 -66q403 0 403 504q0 176 -49 293z" />
<glyph unicode="&#xd9;" horiz-adv-x="1267" d="M123 451v825q0 49 35 84t84 35t83.5 -35t34.5 -84v-825q0 -270 279 -270.5t279 270.5v825q0 49 34.5 84t83.5 35t84 -35t35 -84v-825q0 -96 -23.5 -175t-78 -151t-161 -113t-253.5 -41t-253.5 41t-161 113t-78 150.5t-23.5 175.5zM445 1720.5q1 34.5 34 65.5q31 31 67 33 t56 -27l174 -221q41 -45 -10 -92q-45 -43 -94 0l-201 184q-27 23 -26 57.5z" />
<glyph unicode="&#xda;" horiz-adv-x="1267" d="M123 451v825q0 49 35 84t84 35t83.5 -35t34.5 -84v-825q0 -270 279 -270.5t279 270.5v825q0 49 34.5 84t83.5 35t84 -35t35 -84v-825q0 -96 -23.5 -175t-78 -151t-161 -113t-253.5 -41t-253.5 41t-161 113t-78 150.5t-23.5 175.5zM545 1571l174 221q20 29 56 27t67 -33 q33 -31 34 -65.5t-26 -57.5l-201 -184q-49 -43 -94 0q-51 47 -10 92z" />
<glyph unicode="&#xdb;" horiz-adv-x="1267" d="M123 451v825q0 49 35 84t84 35t83.5 -35t34.5 -84v-825q0 -270 279 -270.5t279 270.5v825q0 49 34.5 84t83.5 35t84 -35t35 -84v-825q0 -96 -23.5 -175t-78 -151t-161 -113t-253.5 -41t-253.5 41t-161 113t-78 150.5t-23.5 175.5zM373 1544q0 41 37 68l190 127 q21 14 47.5 14t46.5 -14l191 -127q37 -27 37 -68q0 -33 -22.5 -56.5t-57.5 -23.5q-29 0 -47 15l-148 102l-147 -102q-18 -14 -47 -15q-35 0 -57.5 23.5t-22.5 56.5z" />
<glyph unicode="&#xdc;" horiz-adv-x="1267" d="M123 451v825q0 49 35 84t84 35t83.5 -35t34.5 -84v-825q0 -270 279 -270.5t279 270.5v825q0 49 34.5 84t83.5 35t84 -35t35 -84v-825q0 -96 -23.5 -175t-78 -151t-161 -113t-253.5 -41t-253.5 41t-161 113t-78 150.5t-23.5 175.5zM354 1620q0 109 102.5 109t102.5 -109 q0 -104 -102.5 -104t-102.5 104zM725 1620q0 109 102.5 109t102.5 -109q0 -104 -102.5 -104t-102.5 104z" />
<glyph unicode="&#xdd;" horiz-adv-x="1134" d="M39 1276q0 49 35 84t84 35q65 -1 100 -56l309 -485l310 485q35 55 100 56q49 0 84 -35t35 -84q0 -39 -19 -64l-391 -583v-527q0 -49 -35 -83.5t-84 -34.5t-83.5 34.5t-34.5 83.5v527l-392 583q-18 25 -18 64zM481 1571l174 221q20 29 56.5 27t66.5 -33q33 -31 34 -65.5 t-26 -57.5l-200 -184q-49 -43 -94 0q-51 47 -11 92z" />
<glyph unicode="&#xde;" horiz-adv-x="1130" d="M123 102v1174q0 49 35 84t84 35t83.5 -35t34.5 -84v-139h273q190 0 310 -106.5t120 -313.5q0 -205 -120 -313.5t-310 -108.5h-273v-193q0 -49 -34.5 -83.5t-83.5 -34.5t-84 34.5t-35 83.5zM360 508h254q96 0 149.5 54t53.5 154.5t-54.5 154t-148.5 53.5h-254v-416z" />
<glyph unicode="&#xdf;" horiz-adv-x="1204" d="M102 90v911q0 172 116 287t308 115q176 0 289 -95.5t113 -226.5q0 -82 -44 -143t-97.5 -91t-97.5 -72t-44 -87q0 -41 52.5 -68.5t126 -49t147 -51.5t126 -93.5t52.5 -157.5q0 -139 -104.5 -215t-270.5 -76q-121 0 -219 44.5t-143 99.5q-25 31 -25 63q0 41 29.5 70 t68.5 29q33 0 64 -25q102 -84 225 -84q152 0 152 82q0 47 -51.5 78t-125 53.5t-148.5 52t-126 91t-51 153.5q0 57 28.5 106.5t70.5 84t84 65.5t71 66.5t29 74.5q0 47 -42 88t-139 41q-86 0 -144 -53t-58 -139v-928q0 -45 -32 -75.5t-79 -30.5q-49 0 -80 29.5t-31 76.5z" />
<glyph unicode="&#xe0;" horiz-adv-x="966" d="M55 283q0 137 95.5 212.5t236.5 75.5h268v37q0 70 -49 112t-137 42q-96 0 -205 -78q-29 -20 -61 -20q-39 0 -68 28.5t-29 67.5t27 67q119 131 336 131q190 0 297.5 -90t107.5 -252v-524q0 -45 -31.5 -76.5t-76.5 -31.5t-77 31.5t-32 76.5q-74 -119 -268 -119 q-150 0 -242 85t-92 225zM276 283q0 -125 170 -125q86 0 147.5 51t61.5 133v57h-239q-139 0 -140 -116zM289.5 1294.5q1.5 34.5 34.5 65.5q31 31 66.5 33t55.5 -27l175 -221q40 -45 -11 -92q-45 -43 -94 0l-201 184q-27 23 -25.5 57.5z" />
<glyph unicode="&#xe1;" horiz-adv-x="966" d="M55 283q0 137 95.5 212.5t236.5 75.5h268v37q0 70 -49 112t-137 42q-96 0 -205 -78q-29 -20 -61 -20q-39 0 -68 28.5t-29 67.5t27 67q119 131 336 131q190 0 297.5 -90t107.5 -252v-524q0 -45 -31.5 -76.5t-76.5 -31.5t-77 31.5t-32 76.5q-74 -119 -268 -119 q-150 0 -242 85t-92 225zM276 283q0 -125 170 -125q86 0 147.5 51t61.5 133v57h-239q-139 0 -140 -116zM362 1145l175 221q20 29 56 27t66 -33q33 -31 34 -65.5t-25 -57.5l-201 -184q-49 -43 -94 0q-51 47 -11 92z" />
<glyph unicode="&#xe2;" horiz-adv-x="966" d="M55 283q0 137 95.5 212.5t236.5 75.5h268v37q0 70 -49 112t-137 42q-96 0 -205 -78q-29 -20 -61 -20q-39 0 -68 28.5t-29 67.5t27 67q119 131 336 131q190 0 297.5 -90t107.5 -252v-524q0 -45 -31.5 -76.5t-76.5 -31.5t-77 31.5t-32 76.5q-74 -119 -268 -119 q-150 0 -242 85t-92 225zM207 1137q0 41 37 67l190 127q21 15 47.5 15t46.5 -15l191 -127q37 -27 37 -67q0 -35 -23.5 -57.5t-56.5 -22.5q-29 0 -47 14l-148 103l-147 -103q-18 -14 -47 -14q-33 0 -56.5 22.5t-23.5 57.5zM276 283q0 -125 170 -125q86 0 147.5 51t61.5 133 v57h-239q-139 0 -140 -116z" />
<glyph unicode="&#xe3;" horiz-adv-x="966" d="M55 283q0 137 95.5 212.5t236.5 75.5h268v37q0 70 -49 112t-137 42q-96 0 -205 -78q-29 -20 -61 -20q-39 0 -68 28.5t-29 67.5t27 67q119 131 336 131q190 0 297.5 -90t107.5 -252v-524q0 -45 -31.5 -76.5t-76.5 -31.5t-77 31.5t-32 76.5q-74 -119 -268 -119 q-150 0 -242 85t-92 225zM160 1157q0 20 6 33q20 49 68.5 77.5t107.5 28.5q61 0 146 -34.5t118 -34.5q29 0 53 33q25 35 68 34q35 0 57.5 -22.5t22.5 -57.5q0 -20 -6 -32q-20 -49 -68.5 -78t-107.5 -29q-63 0 -149.5 35t-115 35t-53.5 -33q-25 -35 -67 -35q-35 0 -57.5 22.5 t-22.5 57.5zM276 283q0 -125 170 -125q86 0 147.5 51t61.5 133v57h-239q-139 0 -140 -116z" />
<glyph unicode="&#xe4;" horiz-adv-x="966" d="M55 283q0 137 95.5 212.5t236.5 75.5h268v37q0 70 -49 112t-137 42q-96 0 -205 -78q-29 -20 -61 -20q-39 0 -68 28.5t-29 67.5t27 67q119 131 336 131q190 0 297.5 -90t107.5 -252v-524q0 -45 -31.5 -76.5t-76.5 -31.5t-77 31.5t-32 76.5q-74 -119 -268 -119 q-150 0 -242 85t-92 225zM195 1171q0 109 102 109t102 -109q0 -104 -102 -104t-102 104zM276 283q0 -125 170 -125q86 0 147.5 51t61.5 133v57h-239q-139 0 -140 -116zM565 1171q0 109 102.5 109t102.5 -109q0 -104 -102.5 -104t-102.5 104z" />
<glyph unicode="&#xe5;" horiz-adv-x="966" d="M55 283q0 137 95.5 212.5t236.5 75.5h268v37q0 70 -49 112t-137 42q-96 0 -205 -78q-29 -20 -61 -20q-39 0 -68 28.5t-29 67.5t27 67q119 131 336 131q190 0 297.5 -90t107.5 -252v-524q0 -45 -31.5 -76.5t-76.5 -31.5t-77 31.5t-32 76.5q-74 -119 -268 -119 q-150 0 -242 85t-92 225zM266 1229q0 96 55.5 149.5t162 53.5t161.5 -53.5t55 -149.5t-55 -149.5t-161.5 -53.5t-162 53.5t-55.5 149.5zM276 283q0 -125 170 -125q86 0 147.5 51t61.5 133v57h-239q-139 0 -140 -116zM381 1228.5q0 -100.5 102.5 -100.5t102.5 100.5 t-102.5 100.5t-102.5 -100.5z" />
<glyph unicode="&#xe6;" horiz-adv-x="1556" d="M55 283q0 137 95.5 212.5t236.5 75.5h268v37q0 70 -49 112t-137 42q-96 0 -205 -78q-29 -20 -61 -20q-39 0 -68 28.5t-29 67.5t27 67q119 131 336 131q213 0 319 -110q115 111 308 110q123 0 209 -42t127 -110.5t57 -130t16 -124.5q0 -39 -2 -59.5t-13 -49t-38 -42 t-72 -13.5h-506q0 -111 66 -163t174 -52q106 0 203 64q35 23 65 22q39 0 68 -28.5t29 -67.5q0 -45 -35 -76q-119 -113 -330 -113q-264 0 -369 168q-57 -82 -137 -125t-219 -43q-150 0 -242 85t-92 225zM276 283q0 -125 170 -125q86 0 147.5 51t61.5 133v57h-239 q-139 0 -140 -116zM881 571h405q0 82 -48 140.5t-142 58.5q-92 0 -149.5 -51t-65.5 -148z" />
<glyph unicode="&#xe7;" horiz-adv-x="923" d="M59 467q0 246 116 368.5t329 122.5q125 0 210 -45t124 -96q23 -31 22 -63q0 -41 -28.5 -70t-69.5 -29q-45 0 -76 35q-74 80 -182 80q-106 0 -163.5 -79t-57.5 -224q0 -147 57 -226t164 -79q92 0 203 82q29 20 61 20q41 0 69.5 -28.5t28.5 -69.5q0 -43 -35 -76 q-127 -117 -327 -117h-25l-8 -82q27 6 72 7q88 0 141 -48.5t53 -134.5q0 -199 -223 -198q-96 0 -164 45q-23 14 -22 43q0 23 16 38t37 15q12 0 25 -6q57 -29 116 -29q100 0 101 92q0 86 -111 86q-18 0 -47 -6t-43 -6q-43 0 -43 45v152q-319 68 -320 481z" />
<glyph unicode="&#xe8;" horiz-adv-x="964" d="M61 469q0 233 117 361t326 128q123 0 209 -42t127 -110.5t57 -130t16 -124.5q0 -39 -2 -59.5t-13 -49t-37.5 -42t-72.5 -13.5h-505q0 -106 66.5 -160.5t172.5 -54.5q109 0 203 64q35 23 66 22q41 0 68.5 -28.5t27.5 -67.5q0 -45 -35 -76q-119 -113 -330 -113 q-219 0 -340 123t-121 373zM289 571h405q0 82 -48 140.5t-142 58.5q-92 0 -149.5 -51t-65.5 -148zM326.5 1294.5q1.5 34.5 33.5 65.5q31 31 67 33t56 -27l174 -221q41 -45 -10 -92q-45 -43 -94 0l-201 184q-27 23 -25.5 57.5z" />
<glyph unicode="&#xe9;" horiz-adv-x="964" d="M61 469q0 233 117 361t326 128q123 0 209 -42t127 -110.5t57 -130t16 -124.5q0 -39 -2 -59.5t-13 -49t-37.5 -42t-72.5 -13.5h-505q0 -106 66.5 -160.5t172.5 -54.5q109 0 203 64q35 23 66 22q41 0 68.5 -28.5t27.5 -67.5q0 -45 -35 -76q-119 -113 -330 -113 q-219 0 -340 123t-121 373zM289 571h405q0 82 -48 140.5t-142 58.5q-92 0 -149.5 -51t-65.5 -148zM375 1145l174 221q20 29 56 27t67 -33q33 -31 34 -65.5t-26 -57.5l-201 -184q-49 -43 -94 0q-51 47 -10 92z" />
<glyph unicode="&#xea;" horiz-adv-x="964" d="M61 469q0 233 117 361t326 128q123 0 209 -42t127 -110.5t57 -130t16 -124.5q0 -39 -2 -59.5t-13 -49t-37.5 -42t-72.5 -13.5h-505q0 -106 66.5 -160.5t172.5 -54.5q109 0 203 64q35 23 66 22q41 0 68.5 -28.5t27.5 -67.5q0 -45 -35 -76q-119 -113 -330 -113 q-219 0 -340 123t-121 373zM229 1137q0 41 37 67l191 127q20 15 46.5 15t47.5 -15l190 -127q37 -27 37 -67q0 -35 -22.5 -57.5t-57.5 -22.5q-29 0 -47 14l-147 103l-148 -103q-18 -14 -47 -14q-35 0 -57.5 22.5t-22.5 57.5zM289 571h405q0 82 -48 140.5t-142 58.5 q-92 0 -149.5 -51t-65.5 -148z" />
<glyph unicode="&#xeb;" horiz-adv-x="964" d="M61 469q0 233 117 361t326 128q123 0 209 -42t127 -110.5t57 -130t16 -124.5q0 -39 -2 -59.5t-13 -49t-37.5 -42t-72.5 -13.5h-505q0 -106 66.5 -160.5t172.5 -54.5q109 0 203 64q35 23 66 22q41 0 68.5 -28.5t27.5 -67.5q0 -45 -35 -76q-119 -113 -330 -113 q-219 0 -340 123t-121 373zM217 1171q0 109 102.5 109t102.5 -109q0 -104 -102.5 -104t-102.5 104zM289 571h405q0 82 -48 140.5t-142 58.5q-92 0 -149.5 -51t-65.5 -148zM588 1171q0 109 102.5 109t102.5 -109q0 -104 -102.5 -104t-102.5 104z" />
<glyph unicode="&#xec;" horiz-adv-x="436" d="M25.5 1294.5q1.5 34.5 33.5 65.5q31 31 67 33t56 -27l174 -221q41 -45 -10 -92q-45 -43 -94 0l-201 184q-27 23 -25.5 57.5zM113 94v742q0 45 31.5 77.5t78.5 32.5t79 -32.5t32 -77.5v-742q0 -45 -32 -77.5t-79 -32.5t-78.5 32.5t-31.5 77.5z" />
<glyph unicode="&#xed;" horiz-adv-x="436" d="M100 1145l174 221q20 29 56.5 27t66.5 -33q33 -31 34 -65.5t-25 -57.5l-201 -184q-49 -43 -94 0q-51 47 -11 92zM113 94v742q0 45 31.5 77.5t78.5 32.5t79 -32.5t32 -77.5v-742q0 -45 -32 -77.5t-79 -32.5t-78.5 32.5t-31.5 77.5z" />
<glyph unicode="&#xee;" horiz-adv-x="436" d="M-51 1137q0 41 37 67l190 127q21 15 47.5 15t46.5 -15l191 -127q37 -27 37 -67q0 -35 -23.5 -57.5t-56.5 -22.5q-29 0 -47 14l-148 103l-147 -103q-18 -14 -47 -14q-33 0 -56.5 22.5t-23.5 57.5zM113 94v742q0 45 31.5 77.5t78.5 32.5t79 -32.5t32 -77.5v-742 q0 -45 -32 -77.5t-79 -32.5t-78.5 32.5t-31.5 77.5z" />
<glyph unicode="&#xef;" horiz-adv-x="436" d="M-63 1171q0 109 102 109t102 -109q0 -104 -102 -104t-102 104zM113 94v742q0 45 31.5 77.5t78.5 32.5t79 -32.5t32 -77.5v-742q0 -45 -32 -77.5t-79 -32.5t-78.5 32.5t-31.5 77.5zM307 1171q0 109 102.5 109t102.5 -109q0 -104 -102.5 -104t-102.5 104z" />
<glyph unicode="&#xf0;" horiz-adv-x="1019" d="M59 465q0 246 118 369.5t331 123.5q111 0 190 -43q-33 106 -88 181l-90 -60q-18 -12 -45 -12q-39 0 -66.5 27.5t-27.5 66.5q0 49 43 78l45 31q-53 35 -127 67q-55 23 -55 80q0 35 24.5 59.5t59.5 24.5q23 0 49 -10q115 -47 205 -121l73 49q18 12 45 13q39 0 67 -28 t28 -67q0 -48 -43 -77l-39 -25q195 -256 200 -703v-24q0 -246 -117.5 -369t-330.5 -123t-331 123t-118 369zM283 465q0 -303 225 -303t225 303q0 305 -225 305t-225 -305z" />
<glyph unicode="&#xf1;" horiz-adv-x="1021" d="M102 90v746q0 45 33 77.5t78 32.5t78 -32.5t33 -77.5q80 122 262 122q344 0 344 -356v-512q0 -45 -32 -75.5t-79 -30.5q-49 0 -79.5 29.5t-30.5 76.5v471q0 197 -181 197q-205 0 -204 -211v-457q0 -45 -32 -75.5t-79 -30.5t-79 30.5t-32 75.5zM205 1157q0 20 6 33 q20 49 68.5 77.5t107.5 28.5q61 0 146 -34.5t118 -34.5q29 0 54 33q25 35 67 34q35 0 57.5 -22.5t22.5 -57.5q0 -20 -6 -32q-20 -49 -68.5 -78t-107.5 -29q-63 0 -149.5 35t-115 35t-53.5 -33q-25 -35 -67 -35q-35 0 -57.5 22.5t-22.5 57.5z" />
<glyph unicode="&#xf2;" horiz-adv-x="1015" d="M59 465q0 246 118 369.5t331 123.5t330.5 -123.5t117.5 -369.5t-117.5 -369t-330.5 -123t-331 123t-118 369zM283 465q0 -303 225 -303t225 303q0 305 -225 305t-225 -305zM336.5 1294.5q1.5 34.5 34.5 65.5q31 31 66.5 33t56.5 -27l174 -221q40 -45 -11 -92 q-45 -43 -94 0l-201 184q-27 23 -25.5 57.5z" />
<glyph unicode="&#xf3;" horiz-adv-x="1015" d="M59 465q0 246 118 369.5t331 123.5t330.5 -123.5t117.5 -369.5t-117.5 -369t-330.5 -123t-331 123t-118 369zM283 465q0 -303 225 -303t225 303q0 305 -225 305t-225 -305zM399 1145l174 221q20 29 56.5 27t66.5 -33q33 -31 34 -65.5t-25 -57.5l-201 -184q-49 -43 -94 0 q-51 47 -11 92z" />
<glyph unicode="&#xf4;" horiz-adv-x="1015" d="M59 465q0 246 118 369.5t331 123.5t330.5 -123.5t117.5 -369.5t-117.5 -369t-330.5 -123t-331 123t-118 369zM238 1137q0 41 36 67l191 127q20 15 47 15t47 -15l191 -127q37 -27 36 -67q0 -35 -22.5 -57.5t-56.5 -22.5q-29 0 -48 14l-147 103l-147 -103q-18 -14 -48 -14 q-35 0 -57 22.5t-22 57.5zM283 465q0 -303 225 -303t225 303q0 305 -225 305t-225 -305z" />
<glyph unicode="&#xf5;" horiz-adv-x="1015" d="M59 465q0 246 118 369.5t331 123.5t330.5 -123.5t117.5 -369.5t-117.5 -369t-330.5 -123t-331 123t-118 369zM190 1157q0 20 7 33q20 49 68 77.5t108 28.5q61 0 146 -34.5t118 -34.5q29 0 53 33q25 35 68 34q33 0 56.5 -22.5t23.5 -57.5q0 -20 -7 -32q-20 -49 -68 -78 t-108 -29q-63 0 -149 35t-115 35t-53 -33q-25 -35 -68 -35q-33 0 -56.5 22.5t-23.5 57.5zM283 465q0 -303 225 -303t225 303q0 305 -225 305t-225 -305z" />
<glyph unicode="&#xf6;" horiz-adv-x="1015" d="M59 465q0 246 118 369.5t331 123.5t330.5 -123.5t117.5 -369.5t-117.5 -369t-330.5 -123t-331 123t-118 369zM223 1171q0 109 102.5 109t102.5 -109q0 -104 -102.5 -104t-102.5 104zM283 465q0 -303 225 -303t225 303q0 305 -225 305t-225 -305zM594 1171 q0 109 102.5 109t102.5 -109q0 -104 -102.5 -104t-102.5 104z" />
<glyph unicode="&#xf7;" horiz-adv-x="929" d="M0 448.5q0 38.5 27.5 66.5t66.5 28h742q39 0 66.5 -28t27.5 -66.5t-28 -66.5t-66 -28h-742q-39 0 -66.5 28t-27.5 66.5zM352 172q0 45 32 77t79 32q49 0 82 -32t33 -77q0 -47 -32 -78t-83 -31q-47 0 -79 31t-32 78zM352 725q0 47 32 79t79 32q51 0 83 -32t32 -79t-32 -78 t-83 -31q-47 0 -79 31t-32 78z" />
<glyph unicode="&#xf8;" horiz-adv-x="1015" d="M39 65.5q0 32.5 24 57.5l56 57q-59 113 -60 285q0 246 118 369.5t331 123.5q168 0 276 -75l52 53q25 25 59.5 25t58 -24t23.5 -58q0 -33 -25 -58l-59 -63q63 -117 63 -293q0 -246 -117.5 -369t-330.5 -123q-174 0 -285 80l-43 -45q-25 -25 -59.5 -24.5t-58 25t-23.5 57z M283 465q0 -61 8 -103l348 367q-53 41 -131 41q-225 0 -225 -305zM369 207q53 -45 139 -45q225 0 225 303q0 57 -10 115z" />
<glyph unicode="&#xf9;" horiz-adv-x="993" d="M92 358v478q0 45 32 77.5t79 32.5t78.5 -32.5t31.5 -77.5v-478q0 -184 185 -184q182 0 182 184v478q0 45 32.5 77.5t78 32.5t78 -32.5t32.5 -77.5v-478q0 -174 -89 -279.5t-314 -105.5q-227 0 -316.5 105.5t-89.5 279.5zM308 1294.5q1 34.5 34 65.5q31 31 66.5 33 t56.5 -27l174 -221q41 -45 -10 -92q-45 -43 -94 0l-201 184q-27 23 -26 57.5z" />
<glyph unicode="&#xfa;" horiz-adv-x="993" d="M92 358v478q0 45 32 77.5t79 32.5t78.5 -32.5t31.5 -77.5v-478q0 -184 185 -184q182 0 182 184v478q0 45 32.5 77.5t78 32.5t78 -32.5t32.5 -77.5v-478q0 -174 -89 -279.5t-314 -105.5q-227 0 -316.5 105.5t-89.5 279.5zM395 1145l174 221q20 29 56.5 27t66.5 -33 q33 -31 34 -65.5t-26 -57.5l-200 -184q-49 -43 -94 0q-51 47 -11 92z" />
<glyph unicode="&#xfb;" horiz-adv-x="993" d="M92 358v478q0 45 32 77.5t79 32.5t78.5 -32.5t31.5 -77.5v-478q0 -184 185 -184q182 0 182 184v478q0 45 32.5 77.5t78 32.5t78 -32.5t32.5 -77.5v-478q0 -174 -89 -279.5t-314 -105.5q-227 0 -316.5 105.5t-89.5 279.5zM227 1137q0 41 37 67l191 127q20 15 46.5 15 t47.5 -15l190 -127q37 -27 37 -67q0 -35 -23.5 -57.5t-56.5 -22.5q-29 0 -47 14l-147 103l-148 -103q-18 -14 -47 -14q-33 0 -56.5 22.5t-23.5 57.5z" />
<glyph unicode="&#xfc;" horiz-adv-x="993" d="M92 358v478q0 45 32 77.5t79 32.5t78.5 -32.5t31.5 -77.5v-478q0 -184 185 -184q182 0 182 184v478q0 45 32.5 77.5t78 32.5t78 -32.5t32.5 -77.5v-478q0 -174 -89 -279.5t-314 -105.5q-227 0 -316.5 105.5t-89.5 279.5zM217 1171q0 109 102.5 109t102.5 -109 q0 -104 -102.5 -104t-102.5 104zM588 1171q0 109 102.5 109t102.5 -109q0 -104 -102.5 -104t-102.5 104z" />
<glyph unicode="&#xfd;" horiz-adv-x="925" d="M-18 -309q0 45 30.5 73.5t75.5 28.5q92 0 147.5 65.5t112.5 207.5l-315 727q-8 20 -8 43q0 45 32.5 77.5t77.5 32.5q76 0 103 -69l225 -570l225 570q27 70 103 69q45 0 77.5 -32.5t32.5 -77.5q0 -23 -8 -43l-381 -861q-154 -344 -424 -344q-45 0 -75.5 29t-30.5 74z M373 1145l174 221q20 29 56 27t67 -33q33 -31 34 -65.5t-26 -57.5l-201 -184q-49 -43 -94 0q-51 47 -10 92z" />
<glyph unicode="&#xfe;" horiz-adv-x="1052" d="M113 -301v1649q0 45 31.5 77.5t78.5 32.5t79 -32.5t32 -77.5v-512q29 47 93.5 84.5t152.5 37.5q199 0 305 -122.5t106 -368.5q0 -494 -416 -494q-166 0 -241 103v-377q0 -47 -32 -79t-79 -32t-78.5 32t-31.5 79zM328 465q0 -303 219 -303t219 303q0 305 -219 305 t-219 -305z" />
<glyph unicode="&#xff;" horiz-adv-x="925" d="M-18 -309q0 45 30.5 73.5t75.5 28.5q92 0 147.5 65.5t112.5 207.5l-315 727q-8 20 -8 43q0 45 32.5 77.5t77.5 32.5q76 0 103 -69l225 -570l225 570q27 70 103 69q45 0 77.5 -32.5t32.5 -77.5q0 -23 -8 -43l-381 -861q-154 -344 -424 -344q-45 0 -75.5 29t-30.5 74z M176 1171q0 109 102.5 109t102.5 -109q0 -104 -102.5 -104t-102.5 104zM547 1171q0 109 102.5 109t102.5 -109q0 -104 -102.5 -104t-102.5 104z" />
<glyph unicode="&#x152;" horiz-adv-x="1880" d="M70 688q0 358 166.5 538.5t482.5 180.5q164 0 274 -51q23 23 58 22h639q45 0 75.5 -30.5t30.5 -75.5t-30.5 -76t-75.5 -31h-521v-366h387q43 0 74 -31t31 -74t-31 -73.5t-74 -30.5h-387v-377h543q45 0 76 -30.5t31 -76t-31 -76t-76 -30.5h-661q-37 0 -58 18 q-127 -47 -274 -47q-313 0 -481 181.5t-168 535.5zM315 688q0 -504 404 -504q125 0 213 45v918q-90 47 -213 47q-403 0 -404 -506z" />
<glyph unicode="&#x153;" horiz-adv-x="1636" d="M59 465q0 246 118 369.5t331 123.5q223 0 338 -145q117 145 330 145q123 0 208.5 -42t126.5 -110.5t57.5 -130t16.5 -124.5q0 -39 -2 -59.5t-13 -49t-38 -42t-72 -13.5h-506q0 -106 66.5 -160.5t173.5 -54.5q109 0 203 64q35 23 65 22q41 0 69 -28.5t28 -67.5 q0 -45 -35 -76q-119 -113 -330 -113q-231 0 -350 142q-115 -141 -336 -142q-213 0 -331 123t-118 369zM283 465q0 -303 225 -303t225 303q0 305 -225 305t-225 -305zM961 571h405q0 82 -48 140.5t-142 58.5q-92 0 -149.5 -51t-65.5 -148z" />
<glyph unicode="&#x178;" horiz-adv-x="1134" d="M39 1276q0 49 35 84t84 35q65 -1 100 -56l309 -485l310 485q35 55 100 56q49 0 84 -35t35 -84q0 -39 -19 -64l-391 -583v-527q0 -49 -35 -83.5t-84 -34.5t-83.5 34.5t-34.5 83.5v527l-392 583q-18 25 -18 64zM281 1620q0 109 102 109t102 -109q0 -104 -102 -104t-102 104 zM651 1620q0 109 102.5 109t102.5 -109q0 -104 -102.5 -104t-102.5 104z" />
<glyph unicode="&#x2c6;" horiz-adv-x="684" d="M68 1137q0 41 36 67l191 127q20 15 47 15t47 -15l191 -127q37 -27 36 -67q0 -35 -23.5 -57.5t-55.5 -22.5q-29 0 -48 14l-147 103l-147 -103q-18 -14 -48 -14q-33 0 -56 22.5t-23 57.5z" />
<glyph unicode="&#x2dc;" horiz-adv-x="804" d="M78 1157q0 20 6 33q20 49 68.5 77.5t107.5 28.5q61 0 146 -34.5t118 -34.5q29 0 54 33q25 35 67 34q35 0 57.5 -22.5t22.5 -57.5q0 -20 -6 -32q-20 -49 -68.5 -78t-107.5 -29q-63 0 -149.5 35t-115 35t-53.5 -33q-25 -35 -67 -35q-35 0 -57.5 22.5t-22.5 57.5z" />
<glyph unicode="&#x2000;" horiz-adv-x="922" />
<glyph unicode="&#x2001;" horiz-adv-x="1845" />
<glyph unicode="&#x2002;" horiz-adv-x="922" />
<glyph unicode="&#x2003;" horiz-adv-x="1845" />
<glyph unicode="&#x2004;" horiz-adv-x="615" />
<glyph unicode="&#x2005;" horiz-adv-x="461" />
<glyph unicode="&#x2006;" horiz-adv-x="307" />
<glyph unicode="&#x2007;" horiz-adv-x="307" />
<glyph unicode="&#x2008;" horiz-adv-x="230" />
<glyph unicode="&#x2009;" horiz-adv-x="369" />
<glyph unicode="&#x200a;" horiz-adv-x="102" />
<glyph unicode="&#x2010;" horiz-adv-x="774" d="M88 516q0 39 27.5 66.5t66.5 27.5h410q39 0 66.5 -27.5t27.5 -66.5t-27.5 -66.5t-66.5 -27.5h-410q-39 0 -66.5 27.5t-27.5 66.5z" />
<glyph unicode="&#x2011;" horiz-adv-x="774" d="M88 516q0 39 27.5 66.5t66.5 27.5h410q39 0 66.5 -27.5t27.5 -66.5t-27.5 -66.5t-66.5 -27.5h-410q-39 0 -66.5 27.5t-27.5 66.5z" />
<glyph unicode="&#x2012;" horiz-adv-x="774" d="M88 516q0 39 27.5 66.5t66.5 27.5h410q39 0 66.5 -27.5t27.5 -66.5t-27.5 -66.5t-66.5 -27.5h-410q-39 0 -66.5 27.5t-27.5 66.5z" />
<glyph unicode="&#x2013;" horiz-adv-x="1165" d="M172 577.5q0 38.5 27.5 66.5t66.5 28h633q39 0 66.5 -28t27.5 -66.5t-27.5 -66.5t-66.5 -28h-633q-39 0 -66.5 28t-27.5 66.5z" />
<glyph unicode="&#x2014;" horiz-adv-x="1800" d="M172 577.5q0 38.5 27.5 66.5t66.5 28h1268q39 0 66.5 -28t27.5 -66.5t-27.5 -66.5t-66.5 -28h-1268q-39 0 -66.5 28t-27.5 66.5z" />
<glyph unicode="&#x2018;" horiz-adv-x="411" d="M59 928q0 145 64.5 267t150.5 187q16 12 33 13q18 0 31.5 -13.5t13.5 -31.5q0 -14 -12 -31q-31 -39 -45 -58.5t-27.5 -56.5t-13.5 -75.5t37 -100t37 -100.5q0 -137 -135 -137q-133 0 -134 137z" />
<glyph unicode="&#x2019;" horiz-adv-x="411" d="M59 836q0 16 13 30q31 39 45 58.5t27.5 56.5t13.5 76q0 41 -37 100.5t-37 99.5q0 138 135 138q133 0 133 -138q0 -145 -64.5 -267t-150.5 -187q-16 -12 -33 -12q-18 0 -31.5 13t-13.5 32z" />
<glyph unicode="&#x201a;" horiz-adv-x="448" d="M59 -305q0 14 13 31q31 39 45 58t27.5 56t13.5 76q0 41 -37 101.5t-37 99.5q0 137 135 137q133 0 133 -137q0 -145 -64.5 -267t-150.5 -188q-16 -12 -33 -12q-18 0 -31.5 13t-13.5 32z" />
<glyph unicode="&#x201c;" horiz-adv-x="745" d="M59 928q0 145 64.5 267t150.5 187q16 12 33 13q18 0 31.5 -13.5t13.5 -31.5q0 -14 -12 -31q-31 -39 -45 -58.5t-27.5 -56.5t-13.5 -75.5t37 -100t37 -100.5q0 -137 -135 -137q-133 0 -134 137zM393 928q0 145 64.5 267t150.5 187q16 12 33 13q18 0 31.5 -13.5t13.5 -31.5 q0 -14 -12 -31q-31 -39 -45.5 -58.5t-27.5 -56.5t-13 -75.5t37 -100t37 -100.5q-1 -137 -136 -137q-133 0 -133 137z" />
<glyph unicode="&#x201d;" horiz-adv-x="745" d="M59 836q0 16 13 30q31 39 45 58.5t27.5 56.5t13.5 76q0 41 -37 100.5t-37 99.5q0 138 135 138q133 0 133 -138q0 -145 -64.5 -267t-150.5 -187q-16 -12 -33 -12q-18 0 -31.5 13t-13.5 32zM393 836q0 16 13 30q31 39 45 58.5t27.5 56.5t13.5 76q0 41 -37 100.5t-37 99.5 q0 138 135 138q133 0 133 -138q0 -145 -64.5 -267t-150.5 -187q-16 -12 -33 -12q-18 0 -31.5 13t-13.5 32z" />
<glyph unicode="&#x201e;" horiz-adv-x="782" d="M59 -305q0 14 13 31q31 39 45 58t27.5 56t13.5 76q0 41 -37 101.5t-37 99.5q0 137 135 137q133 0 133 -137q0 -145 -64.5 -267t-150.5 -188q-16 -12 -33 -12q-18 0 -31.5 13t-13.5 32zM393 -305q0 14 13 31q31 39 45 58t27.5 56t13.5 76q0 41 -37 101.5t-37 99.5 q0 137 135 137q133 0 133 -137q0 -145 -64.5 -267t-150.5 -188q-16 -12 -33 -12q-18 0 -31.5 13t-13.5 32z" />
<glyph unicode="&#x2022;" horiz-adv-x="856" d="M162 571q0 279 266 279t266 -279q0 -266 -266 -266t-266 266z" />
<glyph unicode="&#x202f;" horiz-adv-x="369" />
<glyph unicode="&#x2039;" horiz-adv-x="667" d="M94 434.5q0 28.5 23 54.5l315 363q27 31 62 31q33 0 56 -23.5t23 -56.5q0 -31 -20 -51l-289 -318l289 -317q20 -20 20 -51q0 -33 -23.5 -56.5t-55.5 -23.5q-35 0 -62 30l-315 363q-23 27 -23 55.5z" />
<glyph unicode="&#x203a;" horiz-adv-x="667" d="M94 66q0 31 21 51l288 317l-288 318q-20 20 -21 51q0 33 23.5 56.5t56.5 23.5q35 0 62 -31l315 -363q22 -26 22 -54.5t-22 -55.5l-315 -363q-27 -31 -62 -30q-33 0 -56.5 23.5t-23.5 56.5z" />
<glyph unicode="&#x205f;" horiz-adv-x="461" />
<glyph unicode="&#x20ac;" horiz-adv-x="1325" d="M-31 545q0 37 25.5 62.5t62.5 25.5h15v90h-15q-37 0 -62.5 25.5t-25.5 62.5t25.5 62.5t62.5 25.5h33q92 508 623 508q340 0 491 -221q23 -35 23 -68q0 -45 -33 -76.5t-78 -31.5q-49 0 -84 41q-63 74 -137 108.5t-182 34.5q-303 0 -375 -295h252q37 0 62.5 -25.5 t25.5 -62.5t-25.5 -62.5t-62.5 -25.5h-273v-90h273q37 0 62.5 -25.5t25.5 -62.5t-25.5 -62.5t-62.5 -25.5h-248q37 -143 126 -208t245 -65q113 0 184.5 30t144.5 105q45 45 88 46q45 0 78 -33t33 -78q0 -35 -20 -61q-76 -100 -211.5 -161t-296.5 -61q-526 0 -621 486h-35 q-37 0 -62.5 25.5t-25.5 62.5z" />
<glyph unicode="&#x2122;" horiz-adv-x="858" d="M49 1296q0 39 39 39h252q39 0 39 -39q0 -16 -11.5 -27.5t-27.5 -11.5h-82v-258q0 -16 -13.5 -29.5t-29.5 -13.5q-18 0 -30.5 13.5t-12.5 29.5v258h-84q-16 0 -27.5 11.5t-11.5 27.5zM430 997v303q0 16 12.5 28.5t28.5 12.5q23 0 37 -22l94 -168l94 168q14 23 37 22 q16 0 28.5 -12t12.5 -29v-303q0 -16 -12 -28.5t-28.5 -12.5t-29 12.5t-12.5 28.5v164l-57 -106q-12 -21 -32.5 -21t-33.5 21l-57 106v-164q0 -16 -12.5 -28.5t-28.5 -12.5t-28.5 12.5t-12.5 28.5z" />
<glyph unicode="&#x25fc;" horiz-adv-x="942" d="M0 0v942h942v-942h-942z" />
</font>
</defs>
</svg>
